<svg id="Layer_1" data-name="Layer 1" xmlns="http://www.w3.org/2000/svg" viewBox="0 0 1143.09 549.26"><defs><style>.cls-1{fill:#c1272d;}.cls-2,.cls-6{fill:none;stroke:#000;stroke-miterlimit:10;}.cls-3{fill:#39b54a;}.cls-4{fill:#29abe2;}.cls-5{fill:#fcee21;}.cls-6{stroke-width:2px;}</style></defs><rect width="100%" height="100%" fill="white"/><rect class="cls-1" x="36.5" y="45.5" width="29" height="29"/><path d="M65,46V74H37V46H65m1-1H36V75H66V45Z"/><path d="M143,19V89H19V19H143m1-1H18V90H144V18Z"/><path d="M34.56,86.26a5.2,5.2,0,0,1-2.13.38,3.78,3.78,0,0,1-4-4.09,4,4,0,0,1,4.22-4.25,4.37,4.37,0,0,1,1.92.36l-.25.86a3.69,3.69,0,0,0-1.63-.34,3,3,0,0,0-3.15,3.33,2.93,2.93,0,0,0,3.1,3.25,4.22,4.22,0,0,0,1.7-.33Z"/><path d="M41,83.57a2.83,2.83,0,0,1-2.89,3.08,2.76,2.76,0,0,1-2.79-3,2.84,2.84,0,0,1,2.88-3.09A2.75,2.75,0,0,1,41,83.57Zm-4.61.06c0,1.27.73,2.23,1.76,2.23s1.77-1,1.77-2.25c0-1-.49-2.23-1.74-2.23S36.35,82.53,36.35,83.63Z"/><path d="M42.29,82.29c0-.6,0-1.1,0-1.57h.93l0,.93h0a2,2,0,0,1,1.82-1.07,1.71,1.71,0,0,1,1.65,1.17h0a2.35,2.35,0,0,1,.65-.76,2,2,0,0,1,1.28-.41c.77,0,1.91.51,1.91,2.52v3.42h-1V83.23c0-1.11-.41-1.78-1.26-1.78a1.36,1.36,0,0,0-1.25,1,1.62,1.62,0,0,0-.08.52v3.59h-1V83c0-.92-.41-1.59-1.22-1.59a1.42,1.42,0,0,0-1.3,1,1.5,1.5,0,0,0-.09.52v3.5h-1Z"/><path d="M52.3,82.61c0-.74,0-1.34,0-1.89h1l0,1h0a2.28,2.28,0,0,1,2.06-1.13c1.41,0,2.46,1.19,2.46,3,0,2.09-1.27,3.12-2.64,3.12a2,2,0,0,1-1.78-.91h0v3.15h-1Zm1,1.55a2.82,2.82,0,0,0,0,.43A1.63,1.63,0,0,0,55,85.82c1.12,0,1.77-.91,1.77-2.24,0-1.16-.62-2.16-1.73-2.16a1.7,1.7,0,0,0-1.6,1.31,2,2,0,0,0-.07.43Z"/><path d="M64,84.94c0,.6,0,1.12.05,1.58H63.1l-.06-1h0a2.16,2.16,0,0,1-1.92,1.08c-.91,0-2-.5-2-2.54V80.72h1.06v3.21c0,1.1.33,1.85,1.29,1.85a1.53,1.53,0,0,0,1.39-1,1.57,1.57,0,0,0,.1-.54V80.72h1Z"/><path d="M67,79.05v1.67h1.51v.8H67v3.13c0,.72.2,1.13.79,1.13a2.08,2.08,0,0,0,.61-.08l0,.8a2.67,2.67,0,0,1-.93.14,1.47,1.47,0,0,1-1.14-.44A2.17,2.17,0,0,1,66,84.69V81.52h-.9v-.8H66v-1.4Z"/><path d="M70.23,83.81a1.85,1.85,0,0,0,2,2,3.75,3.75,0,0,0,1.6-.3l.18.76a4.63,4.63,0,0,1-1.93.36,2.7,2.7,0,0,1-2.85-2.93c0-1.75,1-3.13,2.72-3.13a2.46,2.46,0,0,1,2.4,2.74,2.81,2.81,0,0,1,0,.49Zm3.09-.76a1.5,1.5,0,0,0-1.46-1.71,1.74,1.74,0,0,0-1.62,1.71Z"/><line class="cls-2" x1="144" y1="36" x2="18" y2="36"/><path d="M66.91,22.54a11.65,11.65,0,0,1,2-.16,3.28,3.28,0,0,1,2.34.66,2,2,0,0,1,.64,1.53,2.11,2.11,0,0,1-1.52,2.06v0a2,2,0,0,1,1.18,1.63,13,13,0,0,0,.63,2.22H71.1a10.79,10.79,0,0,1-.54-1.93c-.24-1.12-.67-1.54-1.62-1.57H68v3.5h-1Zm1,3.69H69c1.12,0,1.83-.62,1.83-1.54s-.76-1.5-1.86-1.51a4.18,4.18,0,0,0-1,.1Z"/><path d="M76.69,30.52l-.08-.73h0a2.18,2.18,0,0,1-1.78.86A1.65,1.65,0,0,1,73,29c0-1.4,1.25-2.17,3.49-2.15v-.12a1.2,1.2,0,0,0-1.32-1.35,2.93,2.93,0,0,0-1.51.43l-.24-.69a3.64,3.64,0,0,1,1.91-.52c1.77,0,2.2,1.21,2.2,2.38v2.17a8.4,8.4,0,0,0,.1,1.39Zm-.16-3c-1.15,0-2.45.18-2.45,1.3a.93.93,0,0,0,1,1,1.43,1.43,0,0,0,1.4-1,1,1,0,0,0,.06-.33Z"/><path d="M79.26,26.29c0-.6,0-1.1-.05-1.57h.94l.06,1h0a2.14,2.14,0,0,1,1.92-1.09c.8,0,2,.48,2,2.47v3.47h-1V27.17c0-.93-.35-1.71-1.35-1.71a1.5,1.5,0,0,0-1.41,1.08,1.45,1.45,0,0,0-.07.49v3.49H79.26Z"/><path d="M87,27.38h0a7.77,7.77,0,0,1,.51-.66l1.71-2h1.27L88.23,27.1l2.56,3.42H89.51l-2-2.78-.54.6v2.18h-1V22h1Z"/><path d="M96.05,23.71h0l-1.35.73-.21-.8,1.71-.92h.9v7.8h-1Z"/><rect class="cls-3" x="36.81" y="162.91" width="29" height="29"/><path d="M65.31,163.41v28h-28v-28h28m1-1h-30v30h30v-30Z"/><path d="M143.31,136.41v70h-124v-70h124m1-1h-126v72h126v-72Z"/><path d="M34.87,203.66a5,5,0,0,1-2.13.39,3.78,3.78,0,0,1-4-4.09A4,4,0,0,1,33,195.71a4.37,4.37,0,0,1,1.92.36l-.25.85a3.85,3.85,0,0,0-1.63-.33,3,3,0,0,0-3.15,3.33,2.93,2.93,0,0,0,3.1,3.25,4.22,4.22,0,0,0,1.7-.33Z"/><path d="M41.27,201a2.84,2.84,0,0,1-2.89,3.08,2.77,2.77,0,0,1-2.79-3A2.84,2.84,0,0,1,38.47,198,2.75,2.75,0,0,1,41.27,201Zm-4.61.06c0,1.27.73,2.23,1.76,2.23s1.77-1,1.77-2.26c0-1-.49-2.23-1.74-2.23S36.66,199.93,36.66,201Z"/><path d="M42.6,199.69c0-.6,0-1.09-.05-1.57h.93l0,.94h0A2,2,0,0,1,45.38,198,1.72,1.72,0,0,1,47,199.15h0a2.42,2.42,0,0,1,.65-.75A2,2,0,0,1,49,198c.77,0,1.91.51,1.91,2.52v3.42h-1v-3.29c0-1.11-.41-1.78-1.26-1.78a1.37,1.37,0,0,0-1.25.95,1.74,1.74,0,0,0-.08.53v3.59h-1v-3.48c0-.92-.41-1.59-1.22-1.59a1.42,1.42,0,0,0-1.3,1,1.5,1.5,0,0,0-.09.52v3.5h-1Z"/><path d="M52.61,200c0-.75,0-1.34,0-1.9h.95l.05,1h0A2.28,2.28,0,0,1,55.64,198c1.41,0,2.46,1.19,2.46,2.95,0,2.09-1.27,3.12-2.64,3.12a2,2,0,0,1-1.78-.91h0v3.15h-1Zm1,1.55a2.82,2.82,0,0,0,.05.43,1.63,1.63,0,0,0,1.58,1.23c1.12,0,1.77-.91,1.77-2.24,0-1.16-.62-2.16-1.73-2.16a1.7,1.7,0,0,0-1.6,1.31,2,2,0,0,0-.07.43Z"/><path d="M64.29,202.35c0,.59,0,1.12,0,1.58h-.93l-.06-1h0a2.16,2.16,0,0,1-1.92,1.08c-.91,0-2-.5-2-2.54v-3.4h1.06v3.22c0,1.1.33,1.84,1.29,1.84a1.52,1.52,0,0,0,1.39-1,1.57,1.57,0,0,0,.1-.54v-3.57h1.05Z"/><path d="M67.32,196.46v1.66h1.51v.81H67.32v3.13c0,.72.2,1.12.79,1.12a2.15,2.15,0,0,0,.61-.07l0,.79a2.42,2.42,0,0,1-.93.15,1.45,1.45,0,0,1-1.14-.45,2.13,2.13,0,0,1-.41-1.51v-3.16h-.9v-.81h.9v-1.39Z"/><path d="M70.54,201.22a1.85,1.85,0,0,0,2,2,3.75,3.75,0,0,0,1.6-.3l.18.76a4.63,4.63,0,0,1-1.93.36,2.7,2.7,0,0,1-2.85-2.93c0-1.75,1-3.13,2.72-3.13a2.46,2.46,0,0,1,2.4,2.74,2.81,2.81,0,0,1,0,.49Zm3.09-.76a1.5,1.5,0,0,0-1.46-1.71,1.74,1.74,0,0,0-1.62,1.71Z"/><line class="cls-2" x1="144.31" y1="153.41" x2="18.31" y2="153.41"/><path d="M67.22,140a10.66,10.66,0,0,1,2-.17,3.32,3.32,0,0,1,2.34.66A2,2,0,0,1,72.2,142,2.12,2.12,0,0,1,70.68,144v0a2,2,0,0,1,1.18,1.63,13,13,0,0,0,.63,2.22H71.41a11.07,11.07,0,0,1-.54-1.93c-.24-1.12-.67-1.54-1.62-1.57h-1v3.5h-1Zm1,3.68h1.07c1.12,0,1.83-.61,1.83-1.53s-.76-1.5-1.86-1.51a5,5,0,0,0-1,.09Z"/><path d="M77,147.93l-.08-.73h0a2.18,2.18,0,0,1-1.78.86,1.65,1.65,0,0,1-1.77-1.67c0-1.4,1.25-2.17,3.49-2.16v-.12a1.19,1.19,0,0,0-1.32-1.34,2.93,2.93,0,0,0-1.51.43l-.24-.69a3.64,3.64,0,0,1,1.91-.52c1.77,0,2.2,1.21,2.2,2.38v2.17a8.4,8.4,0,0,0,.1,1.39Zm-.16-3c-1.15,0-2.45.18-2.45,1.3a.93.93,0,0,0,1,1,1.43,1.43,0,0,0,1.4-1,1,1,0,0,0,.06-.34Z"/><path d="M79.57,143.69c0-.6,0-1.09,0-1.57h.94l.06,1h0A2.14,2.14,0,0,1,82.46,142c.8,0,2.05.48,2.05,2.47v3.47H83.46v-3.35c0-.93-.35-1.71-1.35-1.71A1.5,1.5,0,0,0,80.7,144a1.45,1.45,0,0,0-.07.49v3.49H79.57Z"/><path d="M87.27,144.79h0a7.77,7.77,0,0,1,.51-.66l1.71-2h1.27l-2.25,2.39,2.56,3.42H89.82l-2-2.78-.54.6v2.18h-1v-8.52h1Z"/><path d="M94.07,147.93v-.65l.82-.8c2-1.9,2.89-2.91,2.91-4.08a1.39,1.39,0,0,0-1.55-1.52,2.66,2.66,0,0,0-1.66.66l-.33-.75a3.45,3.45,0,0,1,2.2-.79,2.2,2.2,0,0,1,2.39,2.27c0,1.44-1,2.6-2.69,4.18l-.62.58v0H99v.88Z"/><rect class="cls-4" x="207.81" y="45.7" width="29" height="29"/><path d="M236.31,46.2v28h-28v-28h28m1-1h-30v30h30v-30Z"/><path d="M314.31,19.2v70h-124v-70h124m1-1h-126v72h126v-72Z"/><path d="M205.87,86.46a5.2,5.2,0,0,1-2.13.38,3.78,3.78,0,0,1-4-4.09A4,4,0,0,1,204,78.5a4.37,4.37,0,0,1,1.92.36l-.25.85a3.85,3.85,0,0,0-1.63-.33,3,3,0,0,0-3.15,3.33A2.93,2.93,0,0,0,204,86a4.22,4.22,0,0,0,1.7-.33Z"/><path d="M212.27,83.77a2.83,2.83,0,0,1-2.89,3.08,2.77,2.77,0,0,1-2.79-3,2.84,2.84,0,0,1,2.88-3.08A2.75,2.75,0,0,1,212.27,83.77Zm-4.61.06c0,1.27.73,2.23,1.76,2.23s1.77-1,1.77-2.26c0-1-.49-2.23-1.74-2.23S207.66,82.73,207.66,83.83Z"/><path d="M213.6,82.48c0-.59,0-1.09,0-1.57h.93l0,.94h0a2,2,0,0,1,1.82-1.07A1.71,1.71,0,0,1,218,82h0a2.35,2.35,0,0,1,.65-.76,2,2,0,0,1,1.28-.41c.77,0,1.91.51,1.91,2.52v3.42h-1V83.43c0-1.11-.41-1.78-1.26-1.78a1.36,1.36,0,0,0-1.25,1,1.62,1.62,0,0,0-.08.52v3.59h-1V83.24c0-.92-.41-1.59-1.22-1.59a1.42,1.42,0,0,0-1.3,1,1.5,1.5,0,0,0-.09.52v3.5h-1Z"/><path d="M223.61,82.81c0-.74,0-1.34-.05-1.9h.95l.05,1h0a2.28,2.28,0,0,1,2.06-1.13c1.41,0,2.46,1.19,2.46,3,0,2.09-1.27,3.12-2.64,3.12a2,2,0,0,1-1.78-.91h0v3.15h-1Zm1,1.55a2.82,2.82,0,0,0,0,.43A1.63,1.63,0,0,0,226.28,86c1.12,0,1.77-.91,1.77-2.24,0-1.16-.62-2.16-1.73-2.16a1.7,1.7,0,0,0-1.6,1.31,2,2,0,0,0-.07.43Z"/><path d="M235.29,85.14c0,.6,0,1.12.05,1.58h-.93l-.06-1h0a2.16,2.16,0,0,1-1.92,1.08c-.91,0-2-.5-2-2.54v-3.4h1.06v3.22c0,1.1.33,1.85,1.29,1.85a1.53,1.53,0,0,0,1.39-1,1.57,1.57,0,0,0,.1-.54V80.91h1Z"/><path d="M238.32,79.25v1.66h1.51v.81h-1.51v3.13c0,.72.2,1.13.79,1.13a2.08,2.08,0,0,0,.61-.08l.05.79a2.42,2.42,0,0,1-.93.15,1.47,1.47,0,0,1-1.14-.44,2.18,2.18,0,0,1-.41-1.52V81.72h-.9v-.81h.9V79.52Z"/><path d="M241.54,84a1.85,1.85,0,0,0,2,2,3.75,3.75,0,0,0,1.6-.3l.18.76a4.63,4.63,0,0,1-1.93.36,2.7,2.7,0,0,1-2.85-2.93c0-1.75,1-3.13,2.72-3.13a2.46,2.46,0,0,1,2.4,2.74,2.81,2.81,0,0,1,0,.49Zm3.09-.76a1.5,1.5,0,0,0-1.46-1.71,1.74,1.74,0,0,0-1.62,1.71Z"/><line class="cls-2" x1="315.31" y1="36.2" x2="189.31" y2="36.2"/><path d="M238.22,22.74a11.65,11.65,0,0,1,2-.16,3.33,3.33,0,0,1,2.34.65,2,2,0,0,1,.64,1.54,2.12,2.12,0,0,1-1.52,2.06v0a2,2,0,0,1,1.18,1.63,13,13,0,0,0,.63,2.22h-1.08a10.79,10.79,0,0,1-.54-1.93c-.24-1.12-.67-1.54-1.62-1.57h-1v3.5h-1Zm1,3.69h1.07c1.12,0,1.83-.62,1.83-1.54s-.76-1.5-1.86-1.51a5,5,0,0,0-1,.09Z"/><path d="M248,30.72l-.08-.73h0a2.18,2.18,0,0,1-1.78.86,1.65,1.65,0,0,1-1.77-1.67c0-1.4,1.25-2.17,3.49-2.16V26.9a1.2,1.2,0,0,0-1.32-1.34A2.93,2.93,0,0,0,245,26l-.24-.69a3.64,3.64,0,0,1,1.91-.52c1.77,0,2.2,1.21,2.2,2.38v2.17a8.4,8.4,0,0,0,.1,1.39Zm-.16-3c-1.15,0-2.45.18-2.45,1.3a.93.93,0,0,0,1,1,1.43,1.43,0,0,0,1.4-1,1,1,0,0,0,.06-.34Z"/><path d="M250.57,26.48c0-.59,0-1.09,0-1.57h.94l.06,1h0a2.14,2.14,0,0,1,1.92-1.09c.8,0,2,.48,2,2.47v3.47h-1V27.37c0-.93-.35-1.71-1.35-1.71a1.5,1.5,0,0,0-1.41,1.08,1.45,1.45,0,0,0-.07.49v3.49h-1.06Z"/><path d="M258.27,27.58h0a7.77,7.77,0,0,1,.51-.66l1.71-2h1.27l-2.25,2.39,2.56,3.42h-1.28l-2-2.78-.54.6v2.18h-1V22.2h1Z"/><path d="M268.33,30.72V28.6h-3.62v-.7l3.47-5h1.14v4.85h1.09v.83h-1.09v2.12Zm0-2.95v-2.6q0-.62,0-1.23h0c-.24.46-.43.79-.65,1.15l-1.91,2.65v0Z"/><rect class="cls-5" x="207.81" y="162.37" width="29" height="29"/><path d="M236.31,162.87v28h-28v-28h28m1-1h-30v30h30v-30Z"/><path d="M314.31,135.87v70h-124v-70h124m1-1h-126v72h126v-72Z"/><path d="M205.87,203.13a5.2,5.2,0,0,1-2.13.38,3.78,3.78,0,0,1-4-4.09,4,4,0,0,1,4.22-4.24,4.22,4.22,0,0,1,1.92.36l-.25.85a3.84,3.84,0,0,0-1.63-.34,3,3,0,0,0-3.15,3.34,2.93,2.93,0,0,0,3.1,3.25,4,4,0,0,0,1.7-.34Z"/><path d="M212.27,200.44a2.83,2.83,0,0,1-2.89,3.08,2.76,2.76,0,0,1-2.79-3,2.84,2.84,0,0,1,2.88-3.08A2.75,2.75,0,0,1,212.27,200.44Zm-4.61.06c0,1.27.73,2.23,1.76,2.23s1.77-.94,1.77-2.25c0-1-.49-2.23-1.74-2.23S207.66,199.4,207.66,200.5Z"/><path d="M213.6,199.16c0-.6,0-1.09,0-1.57h.93l0,.93h0a2,2,0,0,1,1.82-1.06,1.72,1.72,0,0,1,1.65,1.16h0a2.46,2.46,0,0,1,.65-.76,2,2,0,0,1,1.28-.4c.77,0,1.91.5,1.91,2.52v3.41h-1v-3.28c0-1.12-.41-1.79-1.26-1.79a1.36,1.36,0,0,0-1.25,1,1.69,1.69,0,0,0-.08.53v3.58h-1v-3.47c0-.93-.41-1.6-1.22-1.6a1.43,1.43,0,0,0-1.3,1.06,1.4,1.4,0,0,0-.09.51v3.5h-1Z"/><path d="M223.61,199.48c0-.74,0-1.34-.05-1.89h.95l.05,1h0a2.29,2.29,0,0,1,2.06-1.12c1.41,0,2.46,1.18,2.46,2.95,0,2.08-1.27,3.11-2.64,3.11a2,2,0,0,1-1.78-.91h0v3.16h-1Zm1,1.55a2.68,2.68,0,0,0,0,.43,1.63,1.63,0,0,0,1.58,1.24c1.12,0,1.77-.91,1.77-2.25,0-1.16-.62-2.15-1.73-2.15a1.69,1.69,0,0,0-1.6,1.3,2,2,0,0,0-.07.44Z"/><path d="M235.29,201.81c0,.6,0,1.13.05,1.58h-.93l-.06-.94h0a2.18,2.18,0,0,1-1.92,1.07c-.91,0-2-.5-2-2.54v-3.39h1.06v3.21c0,1.11.33,1.85,1.29,1.85a1.52,1.52,0,0,0,1.39-1,1.57,1.57,0,0,0,.1-.54v-3.56h1Z"/><path d="M238.32,195.92v1.67h1.51v.8h-1.51v3.13c0,.72.2,1.13.79,1.13a2.6,2.6,0,0,0,.61-.07l.05.79a2.67,2.67,0,0,1-.93.14,1.44,1.44,0,0,1-1.14-.44,2.15,2.15,0,0,1-.41-1.51v-3.17h-.9v-.8h.9V196.2Z"/><path d="M241.54,200.68a1.86,1.86,0,0,0,2,2,3.75,3.75,0,0,0,1.6-.3l.18.75a4.63,4.63,0,0,1-1.93.36,2.69,2.69,0,0,1-2.85-2.92c0-1.75,1-3.13,2.72-3.13a2.45,2.45,0,0,1,2.4,2.73,2.72,2.72,0,0,1,0,.49Zm3.09-.75a1.51,1.51,0,0,0-1.46-1.72,1.75,1.75,0,0,0-1.62,1.72Z"/><line class="cls-2" x1="315.31" y1="152.87" x2="189.31" y2="152.87"/><path d="M238.22,139.42a10.66,10.66,0,0,1,2-.17,3.28,3.28,0,0,1,2.34.66,2,2,0,0,1,.64,1.53,2.13,2.13,0,0,1-1.52,2.07v0a2,2,0,0,1,1.18,1.63,13,13,0,0,0,.63,2.22h-1.08a10.51,10.51,0,0,1-.54-1.93c-.24-1.11-.67-1.53-1.62-1.57h-1v3.5h-1Zm1,3.68h1.07c1.12,0,1.83-.61,1.83-1.54s-.76-1.49-1.86-1.51a4.18,4.18,0,0,0-1,.1Z"/><path d="M248,147.39l-.08-.73h0a2.15,2.15,0,0,1-1.78.86,1.65,1.65,0,0,1-1.77-1.66c0-1.41,1.25-2.17,3.49-2.16v-.12a1.19,1.19,0,0,0-1.32-1.34,2.84,2.84,0,0,0-1.51.43l-.24-.7a3.63,3.63,0,0,1,1.91-.51c1.77,0,2.2,1.21,2.2,2.37V146a8.24,8.24,0,0,0,.1,1.39Zm-.16-3c-1.15,0-2.45.18-2.45,1.31a.93.93,0,0,0,1,1,1.42,1.42,0,0,0,1.4-1,.92.92,0,0,0,.06-.33Z"/><path d="M250.57,143.16c0-.6,0-1.09,0-1.57h.94l.06,1h0a2.14,2.14,0,0,1,1.92-1.09c.8,0,2,.48,2,2.47v3.46h-1v-3.34c0-.94-.35-1.72-1.35-1.72a1.5,1.5,0,0,0-1.41,1.08,1.45,1.45,0,0,0-.07.49v3.49h-1.06Z"/><path d="M258.27,144.25h0c.14-.2.34-.46.51-.66l1.71-2h1.27L259.54,144l2.56,3.41h-1.28l-2-2.78-.54.6v2.18h-1v-8.51h1Z"/><path d="M265.32,146.18a3.52,3.52,0,0,0,1.72.49c1.36,0,1.78-.86,1.77-1.51,0-1.09-1-1.56-2-1.56h-.58v-.79h.58c.77,0,1.74-.39,1.74-1.32,0-.62-.39-1.17-1.37-1.17a2.82,2.82,0,0,0-1.55.51l-.28-.76a3.71,3.71,0,0,1,2-.6c1.53,0,2.23.91,2.23,1.85a1.94,1.94,0,0,1-1.44,1.84v0a2,2,0,0,1,1.74,2c0,1.24-1,2.33-2.84,2.33a4,4,0,0,1-2-.52Z"/><rect class="cls-1" x="510.95" y="45.34" width="29" height="29"/><path d="M539.45,45.84v28h-28v-28h28m1-1h-30v30h30v-30Z"/><rect class="cls-4" x="450.95" y="45.34" width="29" height="29"/><path d="M479.45,45.84v28h-28v-28h28m1-1h-30v30h30v-30Z"/><path d="M557.45,18.84v70h-124v-70h124m1-1h-126v72h126v-72Z"/><path d="M449,86.1a5.29,5.29,0,0,1-2.14.38,3.77,3.77,0,0,1-4-4.09,4,4,0,0,1,4.22-4.24,4.26,4.26,0,0,1,1.92.36l-.25.85a3.84,3.84,0,0,0-1.63-.34A3,3,0,0,0,444,82.36a2.94,2.94,0,0,0,3.11,3.25,4.08,4.08,0,0,0,1.7-.34Z"/><path d="M455.4,83.41a2.84,2.84,0,0,1-2.89,3.09,2.76,2.76,0,0,1-2.78-3,2.83,2.83,0,0,1,2.88-3.08A2.74,2.74,0,0,1,455.4,83.41Zm-4.6.06c0,1.27.73,2.23,1.76,2.23s1.76-.94,1.76-2.25c0-1-.49-2.23-1.74-2.23S450.8,82.37,450.8,83.47Z"/><path d="M456.74,82.13c0-.6,0-1.09-.05-1.57h.92l.05.93h0a2,2,0,0,1,1.82-1.06,1.71,1.71,0,0,1,1.64,1.16h0a2.44,2.44,0,0,1,.64-.76,2,2,0,0,1,1.29-.4c.77,0,1.9.5,1.9,2.52v3.41h-1V83.08c0-1.12-.4-1.79-1.26-1.79a1.35,1.35,0,0,0-1.24,1,1.68,1.68,0,0,0-.09.53v3.58h-1V82.89c0-.93-.41-1.6-1.21-1.6a1.45,1.45,0,0,0-1.31,1.06,1.4,1.4,0,0,0-.08.51v3.5h-1Z"/><path d="M466.74,82.45c0-.74,0-1.34,0-1.89h.94l.05,1h0a2.28,2.28,0,0,1,2.06-1.12c1.4,0,2.46,1.18,2.46,2.95,0,2.08-1.27,3.12-2.64,3.12a2,2,0,0,1-1.79-.92h0v3.16h-1.05ZM467.79,84a1.88,1.88,0,0,0,0,.43,1.63,1.63,0,0,0,1.58,1.24c1.12,0,1.76-.91,1.76-2.25,0-1.16-.61-2.15-1.72-2.15a1.68,1.68,0,0,0-1.6,1.3,1.62,1.62,0,0,0-.07.44Z"/><path d="M478.43,84.78c0,.6,0,1.13.05,1.58h-.94l-.06-.94h0a2.21,2.21,0,0,1-1.92,1.08c-.91,0-2-.51-2-2.55V80.56h1v3.21c0,1.11.34,1.85,1.3,1.85a1.52,1.52,0,0,0,1.39-1,1.57,1.57,0,0,0,.09-.54V80.56h1.06Z"/><path d="M481.46,78.89v1.67H483v.8h-1.51v3.13c0,.72.2,1.13.79,1.13a2.68,2.68,0,0,0,.61-.07l.05.79a2.73,2.73,0,0,1-.94.14,1.45,1.45,0,0,1-1.14-.44,2.15,2.15,0,0,1-.41-1.51V81.36h-.9v-.8h.9V79.17Z"/><path d="M484.67,83.65a1.87,1.87,0,0,0,2,2,3.8,3.8,0,0,0,1.61-.3l.18.75a4.67,4.67,0,0,1-1.93.36,2.69,2.69,0,0,1-2.86-2.92c0-1.75,1-3.13,2.73-3.13a2.46,2.46,0,0,1,2.4,2.73,4.15,4.15,0,0,1,0,.49Zm3.1-.75a1.51,1.51,0,0,0-1.47-1.72,1.77,1.77,0,0,0-1.62,1.72Z"/><path d="M513.21,85.09a3.68,3.68,0,0,0,1.87.53c1.07,0,1.7-.56,1.7-1.38s-.44-1.19-1.53-1.61c-1.32-.46-2.13-1.15-2.13-2.29a2.32,2.32,0,0,1,2.61-2.19,3.73,3.73,0,0,1,1.79.39l-.29.86A3.11,3.11,0,0,0,515.7,79c-1.11,0-1.53.66-1.53,1.21,0,.76.49,1.13,1.61,1.56,1.37.53,2.06,1.19,2.06,2.38s-.92,2.32-2.83,2.32A4.14,4.14,0,0,1,513,86Z"/><path d="M519.9,83.65a1.86,1.86,0,0,0,2,2,3.75,3.75,0,0,0,1.6-.3l.18.75a4.63,4.63,0,0,1-1.93.36,2.69,2.69,0,0,1-2.85-2.92c0-1.75,1-3.13,2.72-3.13a2.45,2.45,0,0,1,2.4,2.73,2.72,2.72,0,0,1,0,.49ZM523,82.9a1.5,1.5,0,0,0-1.46-1.72,1.75,1.75,0,0,0-1.62,1.72Z"/><path d="M525.32,82.13c0-.6,0-1.09-.05-1.57h.94l.06,1h0a2.14,2.14,0,0,1,1.92-1.09c.8,0,2,.48,2,2.47v3.46h-1V83c0-.94-.35-1.72-1.35-1.72a1.5,1.5,0,0,0-1.41,1.08,1.45,1.45,0,0,0-.07.49v3.49h-1.06Z"/><path d="M537,77.85v7c0,.52,0,1.11,0,1.5h-.95l0-1h0a2.16,2.16,0,0,1-2,1.14c-1.4,0-2.48-1.19-2.48-3,0-1.93,1.19-3.11,2.6-3.11a1.94,1.94,0,0,1,1.75.88h0V77.85Zm-1,5.07a1.65,1.65,0,0,0-.05-.44,1.56,1.56,0,0,0-1.52-1.23c-1.09,0-1.74,1-1.74,2.25s.57,2.14,1.71,2.14a1.67,1.67,0,0,0,1.6-1.71Z"/><line class="cls-2" x1="558.45" y1="35.84" x2="432.45" y2="35.84"/><path d="M481.36,22.39a10.66,10.66,0,0,1,2-.17,3.28,3.28,0,0,1,2.34.66,2,2,0,0,1,.63,1.53,2.13,2.13,0,0,1-1.52,2.07v0A2,2,0,0,1,486,28.14a12.33,12.33,0,0,0,.62,2.22h-1.08a10.51,10.51,0,0,1-.54-1.93c-.24-1.11-.67-1.53-1.62-1.57h-1v3.5h-1Zm1,3.68h1.07c1.11,0,1.82-.61,1.82-1.54S484.54,23,483.43,23a4.15,4.15,0,0,0-1,.1Z"/><path d="M491.14,30.36l-.09-.73h0a2.17,2.17,0,0,1-1.78.87,1.65,1.65,0,0,1-1.77-1.67c0-1.41,1.24-2.17,3.49-2.16v-.12a1.2,1.2,0,0,0-1.32-1.34,2.81,2.81,0,0,0-1.51.43l-.24-.7a3.6,3.6,0,0,1,1.9-.51c1.78,0,2.21,1.21,2.21,2.37V29a7.31,7.31,0,0,0,.1,1.39Zm-.16-3c-1.15,0-2.46.18-2.46,1.31a.94.94,0,0,0,1,1,1.44,1.44,0,0,0,1.4-1,.92.92,0,0,0,.06-.33Z"/><path d="M493.71,26.13c0-.6,0-1.09,0-1.57h.93l.06,1h0a2.13,2.13,0,0,1,1.92-1.09c.8,0,2,.48,2,2.47v3.46h-1.06V27c0-.94-.35-1.72-1.34-1.72a1.5,1.5,0,0,0-1.42,1.08,1.75,1.75,0,0,0-.07.49v3.49h-1.05Z"/><path d="M501.41,27.22h0l.52-.66,1.7-2h1.27L502.68,27l2.55,3.41H504l-2-2.78-.54.6v2.18h-1V21.85h1Z"/><path d="M510.49,23.55h0l-1.36.73-.2-.8,1.7-.91h.9v7.79h-1Z"/><rect class="cls-3" x="511.26" y="162.75" width="29" height="29"/><path d="M539.76,163.25v28h-28v-28h28m1-1h-30v30h30v-30Z"/><rect class="cls-1" x="451.26" y="162.75" width="29" height="29"/><path d="M479.76,163.25v28h-28v-28h28m1-1h-30v30h30v-30Z"/><path d="M557.76,136.25v70h-124v-70h124m1-1h-126v72h126v-72Z"/><path d="M449.32,203.51a5.29,5.29,0,0,1-2.14.38,3.77,3.77,0,0,1-4-4.09,4,4,0,0,1,4.22-4.24,4.26,4.26,0,0,1,1.92.36l-.25.85a3.84,3.84,0,0,0-1.63-.34,3,3,0,0,0-3.16,3.34A2.94,2.94,0,0,0,447.4,203a4.24,4.24,0,0,0,1.7-.34Z"/><path d="M455.71,200.82a2.83,2.83,0,0,1-2.89,3.08,2.76,2.76,0,0,1-2.78-3,2.83,2.83,0,0,1,2.88-3.08A2.74,2.74,0,0,1,455.71,200.82Zm-4.6.06c0,1.27.73,2.23,1.76,2.23s1.76-.94,1.76-2.25c0-1-.49-2.23-1.74-2.23S451.11,199.78,451.11,200.88Z"/><path d="M457.05,199.54c0-.6,0-1.09-.05-1.57h.92l.05.93h0a2,2,0,0,1,1.82-1.06,1.71,1.71,0,0,1,1.64,1.16h0a2.33,2.33,0,0,1,.64-.76,2,2,0,0,1,1.29-.4c.77,0,1.9.5,1.9,2.51v3.42h-1v-3.28c0-1.12-.4-1.79-1.26-1.79a1.35,1.35,0,0,0-1.24,1,1.63,1.63,0,0,0-.09.53v3.58h-1v-3.48c0-.92-.41-1.59-1.21-1.59a1.45,1.45,0,0,0-1.31,1.05,1.49,1.49,0,0,0-.08.52v3.5h-1Z"/><path d="M467.06,199.86c0-.74,0-1.34-.05-1.89H468l.05,1h0a2.26,2.26,0,0,1,2.06-1.12c1.4,0,2.46,1.18,2.46,2.95,0,2.08-1.27,3.11-2.64,3.11a2,2,0,0,1-1.79-.91h0v3.16h-1Zm1,1.55a1.88,1.88,0,0,0,0,.43,1.63,1.63,0,0,0,1.58,1.24c1.12,0,1.76-.91,1.76-2.25,0-1.16-.61-2.16-1.72-2.16a1.69,1.69,0,0,0-1.6,1.31,1.55,1.55,0,0,0-.07.43Z"/><path d="M478.74,202.19c0,.6,0,1.13.05,1.58h-.94l-.06-1h0a2.19,2.19,0,0,1-1.92,1.08c-.91,0-2-.5-2-2.54V198h1v3.21c0,1.1.34,1.85,1.3,1.85a1.52,1.52,0,0,0,1.39-1,1.57,1.57,0,0,0,.09-.54V198h1.06Z"/><path d="M481.77,196.3V198h1.51v.8h-1.51v3.13c0,.72.2,1.13.79,1.13a2.68,2.68,0,0,0,.61-.07l.05.79a2.73,2.73,0,0,1-.94.14,1.45,1.45,0,0,1-1.14-.44,2.15,2.15,0,0,1-.41-1.51v-3.17h-.9V198h.9v-1.39Z"/><path d="M485,201.06a1.87,1.87,0,0,0,2,2,4,4,0,0,0,1.61-.3l.18.75a4.67,4.67,0,0,1-1.93.36A2.69,2.69,0,0,1,484,201c0-1.76,1-3.13,2.73-3.13a2.46,2.46,0,0,1,2.4,2.73,4.15,4.15,0,0,1,0,.49Zm3.1-.75a1.51,1.51,0,0,0-1.47-1.72,1.76,1.76,0,0,0-1.62,1.72Z"/><path d="M513.52,202.5a3.68,3.68,0,0,0,1.87.53c1.07,0,1.7-.57,1.7-1.38s-.44-1.19-1.53-1.61c-1.32-.47-2.13-1.15-2.13-2.29a2.32,2.32,0,0,1,2.61-2.19,3.73,3.73,0,0,1,1.79.39l-.29.85a3.24,3.24,0,0,0-1.53-.38c-1.11,0-1.53.66-1.53,1.21,0,.76.49,1.13,1.61,1.56,1.37.53,2.06,1.19,2.06,2.38s-.92,2.32-2.83,2.32a4.25,4.25,0,0,1-2.06-.51Z"/><path d="M520.21,201.06a1.86,1.86,0,0,0,2,2,3.91,3.91,0,0,0,1.6-.3l.18.75a4.63,4.63,0,0,1-1.93.36A2.69,2.69,0,0,1,519.2,201c0-1.76,1-3.13,2.72-3.13a2.45,2.45,0,0,1,2.4,2.73,2.72,2.72,0,0,1,0,.49Zm3.09-.75a1.5,1.5,0,0,0-1.46-1.72,1.74,1.74,0,0,0-1.62,1.72Z"/><path d="M525.63,199.54c0-.6,0-1.09,0-1.57h.94l.06,1h0a2.14,2.14,0,0,1,1.92-1.09c.8,0,2.05.48,2.05,2.47v3.46h-1.05v-3.34c0-.94-.35-1.72-1.35-1.72a1.5,1.5,0,0,0-1.41,1.08,1.45,1.45,0,0,0-.07.49v3.49h-1.06Z"/><path d="M537.3,195.26v7c0,.52,0,1.11.05,1.5h-1l0-1h0a2.14,2.14,0,0,1-2,1.14c-1.4,0-2.48-1.18-2.48-3,0-1.93,1.19-3.11,2.6-3.11a1.92,1.92,0,0,1,1.75.88h0v-3.46Zm-1,5.07a1.65,1.65,0,0,0,0-.44,1.55,1.55,0,0,0-1.52-1.23c-1.09,0-1.74,1-1.74,2.25s.57,2.14,1.71,2.14a1.67,1.67,0,0,0,1.6-1.71Z"/><line class="cls-2" x1="558.76" y1="153.25" x2="432.76" y2="153.25"/><path d="M481.67,139.8a10.66,10.66,0,0,1,2-.17,3.28,3.28,0,0,1,2.34.66,2,2,0,0,1,.63,1.53,2.13,2.13,0,0,1-1.52,2.07v0a2,2,0,0,1,1.19,1.63,12.33,12.33,0,0,0,.62,2.22h-1.08a10.79,10.79,0,0,1-.54-1.93c-.24-1.11-.67-1.53-1.62-1.57h-1v3.5h-1Zm1,3.68h1.07c1.11,0,1.82-.61,1.82-1.54s-.75-1.5-1.86-1.51a4.15,4.15,0,0,0-1,.1Z"/><path d="M491.45,147.77l-.09-.73h0a2.16,2.16,0,0,1-1.78.86,1.65,1.65,0,0,1-1.77-1.66c0-1.41,1.24-2.17,3.49-2.16V144a1.21,1.21,0,0,0-1.32-1.35,2.82,2.82,0,0,0-1.51.44l-.24-.7a3.6,3.6,0,0,1,1.9-.51c1.78,0,2.21,1.21,2.21,2.37v2.17a7.38,7.38,0,0,0,.1,1.39Zm-.16-3c-1.15,0-2.46.18-2.46,1.31a.93.93,0,0,0,1,1,1.45,1.45,0,0,0,1.4-1,1,1,0,0,0,.06-.33Z"/><path d="M494,143.54c0-.6,0-1.09,0-1.57h.93l.06,1h0a2.13,2.13,0,0,1,1.92-1.09c.8,0,2,.48,2,2.47v3.46H497.9v-3.34c0-.94-.35-1.72-1.34-1.72a1.5,1.5,0,0,0-1.42,1.08,1.75,1.75,0,0,0-.07.49v3.49H494Z"/><path d="M501.72,144.63h0c.15-.2.35-.46.52-.66l1.7-2h1.27L503,144.35l2.55,3.42h-1.28l-2-2.78-.54.6v2.18h-1v-8.51h1Z"/><path d="M508.51,147.77v-.65l.83-.8c2-1.89,2.89-2.9,2.9-4.08a1.39,1.39,0,0,0-1.55-1.52,2.66,2.66,0,0,0-1.65.66l-.34-.74a3.41,3.41,0,0,1,2.21-.8,2.2,2.2,0,0,1,2.39,2.27c0,1.44-1,2.6-2.69,4.19l-.62.57v0h3.5v.87Z"/><line class="cls-2" x1="495.76" y1="89.69" x2="495.76" y2="125.13"/><polygon points="495.75 132.19 491.69 122.24 495.75 124.6 499.82 122.24 495.75 132.19"/><rect class="cls-4" x="682.26" y="45.54" width="29" height="29"/><path d="M710.76,46V74h-28V46h28m1-1h-30V75h30V45Z"/><rect class="cls-5" x="622.26" y="45.54" width="29" height="29"/><path d="M650.76,46V74h-28V46h28m1-1h-30V75h30V45Z"/><path d="M728.76,19V89h-124V19h124m1-1h-126V90h126V18Z"/><path d="M620.32,86.3a5.29,5.29,0,0,1-2.14.38,3.77,3.77,0,0,1-4-4.09,4,4,0,0,1,4.22-4.24,4.26,4.26,0,0,1,1.92.36l-.25.85a3.84,3.84,0,0,0-1.63-.34,3,3,0,0,0-3.16,3.34,2.94,2.94,0,0,0,3.11,3.25,4.24,4.24,0,0,0,1.7-.34Z"/><path d="M626.71,83.61a2.83,2.83,0,0,1-2.89,3.08,2.76,2.76,0,0,1-2.78-3,2.83,2.83,0,0,1,2.88-3.08A2.75,2.75,0,0,1,626.71,83.61Zm-4.6.06c0,1.27.73,2.23,1.76,2.23s1.76-.94,1.76-2.25c0-1-.49-2.23-1.74-2.23S622.11,82.57,622.11,83.67Z"/><path d="M628.05,82.33c0-.6,0-1.09,0-1.57h.92l.05.93h0a2,2,0,0,1,1.82-1.06,1.71,1.71,0,0,1,1.64,1.16h0a2.33,2.33,0,0,1,.64-.76,2,2,0,0,1,1.29-.4c.77,0,1.9.5,1.9,2.51v3.42h-1V83.28c0-1.12-.4-1.79-1.26-1.79a1.35,1.35,0,0,0-1.24,1,1.63,1.63,0,0,0-.09.53v3.58h-1V83.08c0-.92-.41-1.59-1.21-1.59a1.45,1.45,0,0,0-1.31,1.05,1.49,1.49,0,0,0-.08.52v3.5h-1Z"/><path d="M638.05,82.65c0-.74,0-1.34,0-1.89H639l0,1h0a2.26,2.26,0,0,1,2.06-1.12c1.4,0,2.46,1.18,2.46,3,0,2.08-1.27,3.11-2.64,3.11a2,2,0,0,1-1.79-.91h0v3.16h-1.05Zm1.05,1.55a1.88,1.88,0,0,0,0,.43,1.63,1.63,0,0,0,1.58,1.24c1.11,0,1.76-.91,1.76-2.25,0-1.16-.61-2.16-1.72-2.16a1.69,1.69,0,0,0-1.6,1.31,1.55,1.55,0,0,0-.07.43Z"/><path d="M649.74,85c0,.6,0,1.13,0,1.58h-.94l-.06-1h0a2.19,2.19,0,0,1-1.92,1.08c-.91,0-2-.5-2-2.54V80.76h1V84c0,1.1.34,1.85,1.3,1.85a1.52,1.52,0,0,0,1.39-1,1.57,1.57,0,0,0,.09-.54V80.76h1.06Z"/><path d="M652.77,79.09v1.67h1.51v.8h-1.51v3.13c0,.72.2,1.13.79,1.13a2.68,2.68,0,0,0,.61-.07l.05.79a2.73,2.73,0,0,1-.94.14,1.45,1.45,0,0,1-1.14-.44,2.15,2.15,0,0,1-.41-1.51V81.56h-.9v-.8h.9V79.37Z"/><path d="M656,83.85a1.87,1.87,0,0,0,2,2,4,4,0,0,0,1.61-.3l.18.75a4.67,4.67,0,0,1-1.93.36A2.69,2.69,0,0,1,655,83.76c0-1.76,1-3.13,2.73-3.13a2.46,2.46,0,0,1,2.4,2.73,4.15,4.15,0,0,1,0,.49Zm3.1-.75a1.51,1.51,0,0,0-1.47-1.72A1.76,1.76,0,0,0,656,83.1Z"/><path d="M684.52,85.29a3.68,3.68,0,0,0,1.87.53c1.07,0,1.69-.57,1.69-1.38s-.43-1.19-1.52-1.61c-1.32-.47-2.13-1.15-2.13-2.29A2.32,2.32,0,0,1,687,78.35a3.73,3.73,0,0,1,1.79.39l-.29.85a3.24,3.24,0,0,0-1.53-.38c-1.11,0-1.53.66-1.53,1.21,0,.76.49,1.13,1.61,1.56,1.37.53,2.06,1.19,2.06,2.38s-.92,2.32-2.83,2.32a4.25,4.25,0,0,1-2.06-.51Z"/><path d="M691.21,83.85a1.86,1.86,0,0,0,2,2,3.91,3.91,0,0,0,1.6-.3l.18.75a4.63,4.63,0,0,1-1.93.36,2.69,2.69,0,0,1-2.85-2.92c0-1.76,1-3.13,2.72-3.13a2.45,2.45,0,0,1,2.4,2.73,2.72,2.72,0,0,1,0,.49Zm3.09-.75a1.5,1.5,0,0,0-1.46-1.72,1.74,1.74,0,0,0-1.62,1.72Z"/><path d="M696.63,82.33c0-.6,0-1.09,0-1.57h.94l.06,1h0a2.14,2.14,0,0,1,1.92-1.09c.8,0,2.05.48,2.05,2.47v3.46h-1.05V83.22c0-.94-.35-1.72-1.35-1.72a1.5,1.5,0,0,0-1.41,1.08,1.45,1.45,0,0,0-.07.49v3.49h-1.06Z"/><path d="M708.3,78.05v7c0,.52,0,1.11.05,1.5h-1l0-1h0a2.14,2.14,0,0,1-2,1.14c-1.4,0-2.48-1.18-2.48-3,0-1.93,1.19-3.11,2.6-3.11a1.92,1.92,0,0,1,1.75.88h0V78.05Zm-1,5.07a1.65,1.65,0,0,0,0-.44,1.55,1.55,0,0,0-1.52-1.23c-1.09,0-1.74,1-1.74,2.25s.57,2.14,1.71,2.14a1.67,1.67,0,0,0,1.6-1.71Z"/><line class="cls-2" x1="729.76" y1="36.04" x2="603.76" y2="36.04"/><path d="M652.67,22.59a10.66,10.66,0,0,1,2-.17,3.29,3.29,0,0,1,2.34.66,2,2,0,0,1,.63,1.53,2.13,2.13,0,0,1-1.52,2.07v0a2,2,0,0,1,1.19,1.63,12.33,12.33,0,0,0,.62,2.22h-1.08a10.79,10.79,0,0,1-.54-1.93c-.24-1.11-.67-1.53-1.62-1.57h-1v3.5h-1Zm1,3.68h1.07c1.11,0,1.82-.61,1.82-1.54s-.75-1.5-1.86-1.51a4.15,4.15,0,0,0-1,.1Z"/><path d="M662.45,30.56l-.09-.73h0a2.16,2.16,0,0,1-1.78.86A1.64,1.64,0,0,1,658.78,29c0-1.41,1.24-2.17,3.49-2.16v-.12A1.21,1.21,0,0,0,661,25.4a2.82,2.82,0,0,0-1.51.44l-.24-.7a3.57,3.57,0,0,1,1.9-.51c1.78,0,2.21,1.21,2.21,2.37v2.17a7.38,7.38,0,0,0,.1,1.39Zm-.16-3c-1.15,0-2.46.18-2.46,1.31a.93.93,0,0,0,1,1,1.45,1.45,0,0,0,1.4-1,1,1,0,0,0,.06-.33Z"/><path d="M665,26.33c0-.6,0-1.09,0-1.57h.93l.06,1h0a2.13,2.13,0,0,1,1.92-1.09c.8,0,2.05.48,2.05,2.47v3.46H668.9V27.22c0-.94-.35-1.72-1.34-1.72a1.5,1.5,0,0,0-1.42,1.08,1.45,1.45,0,0,0-.07.49v3.49H665Z"/><path d="M672.72,27.42h0c.15-.2.35-.46.52-.66l1.7-2h1.27L674,27.14l2.55,3.42h-1.28l-2-2.78-.54.6v2.18h-1V22.05h1Z"/><path d="M682.77,30.56V28.44h-3.62v-.7l3.48-5h1.14v4.84h1.09v.83h-1.09v2.12Zm0-2.95V25c0-.41,0-.82,0-1.22h0c-.24.45-.43.79-.64,1.15l-1.91,2.65v0Z"/><rect class="cls-5" x="682.26" y="162.22" width="29" height="29"/><path d="M710.76,162.72v28h-28v-28h28m1-1h-30v30h30v-30Z"/><rect class="cls-3" x="622.26" y="162.22" width="29" height="29"/><path d="M650.76,162.72v28h-28v-28h28m1-1h-30v30h30v-30Z"/><path d="M728.76,135.72v70h-124v-70h124m1-1h-126v72h126v-72Z"/><path d="M620.32,203a5.09,5.09,0,0,1-2.14.39,3.77,3.77,0,0,1-4-4.09,4,4,0,0,1,4.22-4.25,4.4,4.4,0,0,1,1.92.36l-.25.85a3.85,3.85,0,0,0-1.63-.33,3,3,0,0,0-3.16,3.33,2.94,2.94,0,0,0,3.11,3.25,4.25,4.25,0,0,0,1.7-.33Z"/><path d="M626.71,200.29a2.84,2.84,0,0,1-2.89,3.08,2.76,2.76,0,0,1-2.78-3,2.83,2.83,0,0,1,2.88-3.08A2.75,2.75,0,0,1,626.71,200.29Zm-4.6.06c0,1.27.73,2.23,1.76,2.23s1.76-1,1.76-2.26c0-1-.49-2.23-1.74-2.23S622.11,199.24,622.11,200.35Z"/><path d="M628.05,199c0-.6,0-1.09,0-1.57h.92l.05.94h0a2,2,0,0,1,1.82-1.07,1.71,1.71,0,0,1,1.64,1.16h0a2.39,2.39,0,0,1,.64-.75,2,2,0,0,1,1.29-.41c.77,0,1.9.5,1.9,2.52v3.42h-1V200c0-1.11-.4-1.79-1.26-1.79a1.37,1.37,0,0,0-1.24,1,1.73,1.73,0,0,0-.09.53v3.59h-1v-3.48c0-.92-.41-1.6-1.21-1.6a1.56,1.56,0,0,0-1.39,1.57v3.51h-1Z"/><path d="M638.05,199.33c0-.75,0-1.35,0-1.9H639l0,1h0a2.27,2.27,0,0,1,2.06-1.13c1.4,0,2.46,1.19,2.46,2.95,0,2.09-1.27,3.12-2.64,3.12a2.05,2.05,0,0,1-1.79-.91h0v3.15h-1.05Zm1.05,1.54a2,2,0,0,0,0,.44,1.62,1.62,0,0,0,1.58,1.23c1.11,0,1.76-.91,1.76-2.24,0-1.16-.61-2.16-1.72-2.16a1.69,1.69,0,0,0-1.6,1.31,1.49,1.49,0,0,0-.07.43Z"/><path d="M649.74,201.65c0,.6,0,1.13,0,1.59h-.94l-.06-1h0a2.19,2.19,0,0,1-1.92,1.08c-.91,0-2-.5-2-2.54v-3.4h1v3.22c0,1.1.34,1.84,1.3,1.84a1.52,1.52,0,0,0,1.39-1,1.49,1.49,0,0,0,.09-.54v-3.56h1.06Z"/><path d="M652.77,195.77v1.66h1.51v.81h-1.51v3.13c0,.72.2,1.12.79,1.12a2.21,2.21,0,0,0,.61-.07l.05.79a2.48,2.48,0,0,1-.94.15,1.46,1.46,0,0,1-1.14-.45,2.13,2.13,0,0,1-.41-1.51v-3.16h-.9v-.81h.9V196Z"/><path d="M656,200.53a1.86,1.86,0,0,0,2,2,3.8,3.8,0,0,0,1.61-.3l.18.76a4.67,4.67,0,0,1-1.93.36,2.7,2.7,0,0,1-2.86-2.93c0-1.75,1-3.13,2.73-3.13a2.46,2.46,0,0,1,2.4,2.73,4.36,4.36,0,0,1,0,.5Zm3.1-.76a1.5,1.5,0,0,0-1.47-1.71,1.76,1.76,0,0,0-1.62,1.71Z"/><path d="M684.52,202a3.78,3.78,0,0,0,1.87.52c1.07,0,1.69-.56,1.69-1.38s-.43-1.18-1.52-1.6c-1.32-.47-2.13-1.15-2.13-2.29A2.33,2.33,0,0,1,687,195a3.6,3.6,0,0,1,1.79.4l-.29.85a3.11,3.11,0,0,0-1.53-.39c-1.11,0-1.53.66-1.53,1.22,0,.75.49,1.12,1.61,1.56,1.37.52,2.06,1.18,2.06,2.37s-.92,2.33-2.83,2.33a4.13,4.13,0,0,1-2.06-.52Z"/><path d="M691.21,200.53a1.85,1.85,0,0,0,2,2,3.75,3.75,0,0,0,1.6-.3l.18.76a4.63,4.63,0,0,1-1.93.36,2.7,2.7,0,0,1-2.85-2.93c0-1.75,1-3.13,2.72-3.13a2.46,2.46,0,0,1,2.4,2.73,2.85,2.85,0,0,1,0,.5Zm3.09-.76a1.5,1.5,0,0,0-1.46-1.71,1.74,1.74,0,0,0-1.62,1.71Z"/><path d="M696.63,199c0-.6,0-1.09,0-1.57h.94l.06,1h0a2.14,2.14,0,0,1,1.92-1.09c.8,0,2.05.48,2.05,2.47v3.47h-1.05v-3.35c0-.93-.35-1.71-1.35-1.71a1.5,1.5,0,0,0-1.41,1.07,1.55,1.55,0,0,0-.07.5v3.49h-1.06Z"/><path d="M708.3,194.72v7c0,.51,0,1.1.05,1.5h-1l0-1h0a2.14,2.14,0,0,1-2,1.14c-1.4,0-2.48-1.19-2.48-3,0-1.93,1.19-3.12,2.6-3.12a1.93,1.93,0,0,1,1.75.89h0v-3.47Zm-1,5.07a1.65,1.65,0,0,0,0-.44,1.55,1.55,0,0,0-1.52-1.22c-1.09,0-1.74,1-1.74,2.24s.57,2.15,1.71,2.15a1.59,1.59,0,0,0,1.55-1.26,1.71,1.71,0,0,0,0-.46Z"/><line class="cls-2" x1="729.76" y1="152.72" x2="603.76" y2="152.72"/><path d="M652.67,139.26a10.66,10.66,0,0,1,2-.17,3.34,3.34,0,0,1,2.34.66,2,2,0,0,1,.63,1.54,2.12,2.12,0,0,1-1.52,2.06v0a2,2,0,0,1,1.19,1.63,12.6,12.6,0,0,0,.62,2.22h-1.08a11.07,11.07,0,0,1-.54-1.93c-.24-1.12-.67-1.54-1.62-1.58h-1v3.51h-1Zm1,3.68h1.07c1.11,0,1.82-.61,1.82-1.53s-.75-1.5-1.86-1.51a4.3,4.3,0,0,0-1,.09Z"/><path d="M662.45,147.24l-.09-.73h0a2.19,2.19,0,0,1-1.78.86,1.65,1.65,0,0,1-1.77-1.67c0-1.4,1.24-2.17,3.49-2.16v-.12a1.2,1.2,0,0,0-1.32-1.34,2.9,2.9,0,0,0-1.51.43l-.24-.69a3.49,3.49,0,0,1,1.9-.52c1.78,0,2.21,1.21,2.21,2.37v2.18a7.44,7.44,0,0,0,.1,1.39Zm-.16-3c-1.15,0-2.46.18-2.46,1.31a.94.94,0,0,0,1,1,1.45,1.45,0,0,0,1.4-1,1,1,0,0,0,.06-.34Z"/><path d="M665,143c0-.6,0-1.09,0-1.57h.93l.06,1h0a2.13,2.13,0,0,1,1.92-1.09c.8,0,2.05.48,2.05,2.47v3.47H668.9v-3.35c0-.93-.35-1.71-1.34-1.71a1.5,1.5,0,0,0-1.42,1.07,1.55,1.55,0,0,0-.07.5v3.49H665Z"/><path d="M672.72,144.09h0c.15-.2.35-.45.52-.65l1.7-2h1.27L674,143.82l2.55,3.42h-1.28l-2-2.79-.54.6v2.19h-1v-8.52h1Z"/><path d="M679.76,146a3.57,3.57,0,0,0,1.73.49c1.36,0,1.78-.87,1.76-1.51,0-1.1-1-1.56-2-1.56h-.59v-.79h.59c.77,0,1.74-.4,1.74-1.32,0-.63-.4-1.18-1.37-1.18a2.89,2.89,0,0,0-1.56.52l-.27-.77a3.65,3.65,0,0,1,2-.6c1.54,0,2.23.91,2.23,1.86a1.92,1.92,0,0,1-1.43,1.83v0a2,2,0,0,1,1.73,2c0,1.25-1,2.34-2.84,2.34a4,4,0,0,1-2-.53Z"/><line class="cls-2" x1="666.76" y1="134.7" x2="666.76" y2="99.27"/><polygon points="666.76 92.2 670.82 102.15 666.76 99.79 662.69 102.15 666.76 92.2"/><line class="cls-2" x1="558.16" y1="179.92" x2="593.6" y2="179.92"/><polygon points="600.66 179.92 590.71 183.99 593.07 179.92 590.71 175.85 600.66 179.92"/><line class="cls-2" x1="603.66" y1="62.92" x2="568.22" y2="62.92"/><polygon points="561.16 62.92 571.11 58.85 568.75 62.92 571.11 66.98 561.16 62.92"/><path d="M332,1V224H1V1H332m1-1H0V225H333V0Z"/><path d="M746,1V224H415V1H746m1-1H414V225H747V0Z"/><line class="cls-6" x1="350.83" y1="112.12" x2="379.21" y2="112.12"/><polygon points="393.33 112.12 373.43 120.25 378.15 112.12 373.43 103.99 393.33 112.12"/><rect class="cls-4" x="907.03" y="206.64" width="29" height="29"/><path d="M935.53,207.14v28h-28v-28h28m1-1h-30v30h30v-30Z"/><rect class="cls-5" x="847.03" y="206.64" width="29" height="29"/><path d="M875.53,207.14v28h-28v-28h28m1-1h-30v30h30v-30Z"/><path d="M953.53,180.14v70h-124v-70h124m1-1h-126v72h126v-72Z"/><path d="M845.09,247.4a5.2,5.2,0,0,1-2.13.38,3.77,3.77,0,0,1-4-4.09,4,4,0,0,1,4.22-4.24,4.26,4.26,0,0,1,1.92.36l-.26.85a3.8,3.8,0,0,0-1.63-.34,3,3,0,0,0-3.15,3.34,2.94,2.94,0,0,0,3.11,3.25,4.24,4.24,0,0,0,1.7-.34Z"/><path d="M851.49,244.71a2.83,2.83,0,0,1-2.89,3.08,2.76,2.76,0,0,1-2.78-3,2.84,2.84,0,0,1,2.88-3.09A2.76,2.76,0,0,1,851.49,244.71Zm-4.61.06c0,1.27.74,2.23,1.77,2.23s1.76-.95,1.76-2.25c0-1-.49-2.23-1.74-2.23S846.88,243.67,846.88,244.77Z"/><path d="M852.83,243.43c0-.6,0-1.09-.05-1.57h.92l0,.93h0a2,2,0,0,1,1.82-1.07,1.71,1.71,0,0,1,1.64,1.17h0a2.21,2.21,0,0,1,.64-.76,2,2,0,0,1,1.29-.41c.76,0,1.9.51,1.9,2.52v3.42h-1v-3.28c0-1.12-.41-1.79-1.26-1.79a1.34,1.34,0,0,0-1.24,1,1.63,1.63,0,0,0-.09.53v3.58h-1v-3.48c0-.92-.41-1.59-1.21-1.59a1.45,1.45,0,0,0-1.31,1,1.49,1.49,0,0,0-.08.52v3.5h-1Z"/><path d="M862.83,243.75c0-.74,0-1.34,0-1.89h.94l0,1h0a2.3,2.3,0,0,1,2.07-1.13c1.4,0,2.46,1.19,2.46,2.95,0,2.09-1.28,3.12-2.64,3.12a2,2,0,0,1-1.79-.91h0V250h-1Zm1,1.55a2.86,2.86,0,0,0,0,.43,1.65,1.65,0,0,0,1.59,1.24c1.11,0,1.76-.92,1.76-2.25,0-1.16-.61-2.16-1.73-2.16a1.68,1.68,0,0,0-1.59,1.31,1.55,1.55,0,0,0-.07.43Z"/><path d="M874.52,246.08c0,.6,0,1.13.05,1.58h-.94l-.06-.95h0a2.19,2.19,0,0,1-1.92,1.08c-.91,0-2-.5-2-2.54v-3.39h1.06v3.21c0,1.1.34,1.85,1.3,1.85a1.54,1.54,0,0,0,1.39-1,1.57,1.57,0,0,0,.09-.54v-3.56h1.06Z"/><path d="M877.54,240.19v1.67h1.52v.8h-1.52v3.13c0,.72.21,1.13.8,1.13a2.68,2.68,0,0,0,.61-.07l0,.79a2.63,2.63,0,0,1-.93.14,1.45,1.45,0,0,1-1.14-.44,2.15,2.15,0,0,1-.41-1.51v-3.17h-.9v-.8h.9v-1.39Z"/><path d="M880.76,245a1.86,1.86,0,0,0,2,2,4,4,0,0,0,1.61-.3l.18.75a4.67,4.67,0,0,1-1.93.36,2.7,2.7,0,0,1-2.86-2.93c0-1.75,1-3.13,2.73-3.13a2.46,2.46,0,0,1,2.39,2.74,4.88,4.88,0,0,1,0,.49Zm3.09-.76a1.49,1.49,0,0,0-1.46-1.71,1.75,1.75,0,0,0-1.62,1.71Z"/><path d="M909.3,246.39a3.68,3.68,0,0,0,1.87.53c1.07,0,1.69-.57,1.69-1.38s-.43-1.19-1.52-1.61c-1.32-.47-2.13-1.15-2.13-2.29a2.32,2.32,0,0,1,2.61-2.19,3.73,3.73,0,0,1,1.79.39l-.29.85a3.25,3.25,0,0,0-1.54-.38c-1.1,0-1.52.66-1.52,1.21,0,.76.49,1.13,1.61,1.56,1.37.53,2.06,1.19,2.06,2.37s-.92,2.33-2.83,2.33a4.25,4.25,0,0,1-2.06-.51Z"/><path d="M916,245a1.86,1.86,0,0,0,2,2,3.91,3.91,0,0,0,1.6-.3l.18.75a4.63,4.63,0,0,1-1.93.36,2.69,2.69,0,0,1-2.85-2.93c0-1.75,1-3.13,2.72-3.13a2.47,2.47,0,0,1,2.4,2.74,4.35,4.35,0,0,1,0,.49Zm3.09-.76a1.5,1.5,0,0,0-1.46-1.71,1.74,1.74,0,0,0-1.62,1.71Z"/><path d="M921.41,243.43c0-.6,0-1.09,0-1.57h.94l.06,1h0a2.13,2.13,0,0,1,1.92-1.1c.8,0,2.05.48,2.05,2.47v3.47h-1.06v-3.34c0-.94-.34-1.72-1.34-1.72a1.5,1.5,0,0,0-1.41,1.08,1.44,1.44,0,0,0-.08.49v3.49h-1.05Z"/><path d="M933.08,239.15v7c0,.52,0,1.11,0,1.5h-1l0-1h0a2.14,2.14,0,0,1-2,1.14c-1.4,0-2.48-1.18-2.48-2.95,0-1.93,1.19-3.12,2.6-3.12a1.93,1.93,0,0,1,1.75.89h0v-3.46ZM932,244.22a2.2,2.2,0,0,0,0-.44,1.55,1.55,0,0,0-1.52-1.23c-1.1,0-1.74,1-1.74,2.24s.57,2.15,1.71,2.15a1.59,1.59,0,0,0,1.55-1.26,2.14,2.14,0,0,0,0-.45Z"/><line class="cls-2" x1="954.53" y1="197.14" x2="828.53" y2="197.14"/><path d="M877.45,183.69a10.58,10.58,0,0,1,2-.17,3.31,3.31,0,0,1,2.34.66,2,2,0,0,1,.63,1.53,2.13,2.13,0,0,1-1.52,2.07v0a2,2,0,0,1,1.19,1.63,12.33,12.33,0,0,0,.62,2.22h-1.08a10.79,10.79,0,0,1-.54-1.93c-.24-1.12-.67-1.54-1.62-1.57h-1v3.5h-1Zm1,3.68h1.07c1.11,0,1.82-.61,1.82-1.54s-.76-1.5-1.86-1.51a4.15,4.15,0,0,0-1,.1Z"/><path d="M887.22,191.66l-.08-.73h0a2.13,2.13,0,0,1-1.77.86,1.65,1.65,0,0,1-1.78-1.66c0-1.41,1.25-2.17,3.49-2.16v-.12a1.2,1.2,0,0,0-1.32-1.35,2.84,2.84,0,0,0-1.51.44l-.24-.7a3.64,3.64,0,0,1,1.91-.52c1.78,0,2.21,1.22,2.21,2.38v2.17a8.39,8.39,0,0,0,.09,1.39Zm-.15-3c-1.15,0-2.46.18-2.46,1.31a.93.93,0,0,0,1,1,1.45,1.45,0,0,0,1.41-1,1.36,1.36,0,0,0,.06-.33Z"/><path d="M889.79,187.43c0-.6,0-1.09,0-1.57h.93l.06,1h0a2.1,2.1,0,0,1,1.91-1.1c.81,0,2.06.48,2.06,2.47v3.47h-1.06v-3.34c0-.94-.35-1.72-1.34-1.72a1.5,1.5,0,0,0-1.42,1.08,1.45,1.45,0,0,0-.07.49v3.49h-1.06Z"/><path d="M897.5,188.52h0c.14-.2.35-.46.52-.66l1.7-2H901l-2.24,2.38,2.55,3.42H900l-2-2.78-.54.6v2.18h-1v-8.51h1Z"/><path d="M906.58,184.85h0l-1.36.73-.2-.8,1.7-.91h.9v7.79h-1Z"/><rect class="cls-1" x="907.34" y="324.05" width="29" height="29"/><path d="M935.84,324.55v28h-28v-28h28m1-1h-30v30h30v-30Z"/><rect class="cls-4" x="847.34" y="324.05" width="29" height="29"/><path d="M875.84,324.55v28h-28v-28h28m1-1h-30v30h30v-30Z"/><path d="M953.84,297.55v70h-124v-70h124m1-1h-126v72h126v-72Z"/><path d="M845.4,364.81a5.2,5.2,0,0,1-2.13.38,3.77,3.77,0,0,1-4-4.09,4,4,0,0,1,4.22-4.25,4.44,4.44,0,0,1,1.92.36l-.26.86a3.66,3.66,0,0,0-1.63-.34,3,3,0,0,0-3.15,3.33,2.94,2.94,0,0,0,3.11,3.25,4.25,4.25,0,0,0,1.7-.33Z"/><path d="M851.8,362.12a2.83,2.83,0,0,1-2.89,3.08,2.76,2.76,0,0,1-2.78-3,2.84,2.84,0,0,1,2.88-3.09A2.75,2.75,0,0,1,851.8,362.12Zm-4.61.06c0,1.27.74,2.23,1.77,2.23s1.76-1,1.76-2.26c0-1-.49-2.23-1.74-2.23S847.19,361.08,847.19,362.18Z"/><path d="M853.13,360.84c0-.6,0-1.1,0-1.57H854l0,.93h0a2,2,0,0,1,1.83-1.07,1.71,1.71,0,0,1,1.64,1.17h0a2.35,2.35,0,0,1,.65-.76,2,2,0,0,1,1.29-.41c.76,0,1.9.51,1.9,2.52v3.42h-1v-3.29c0-1.11-.41-1.78-1.26-1.78a1.36,1.36,0,0,0-1.25,1,2,2,0,0,0-.08.52v3.59h-1v-3.48c0-.92-.41-1.59-1.21-1.59a1.44,1.44,0,0,0-1.31,1.05,1.49,1.49,0,0,0-.08.52v3.5h-1Z"/><path d="M863.14,361.16c0-.74,0-1.34,0-1.89H864l.05,1h0a2.3,2.3,0,0,1,2.07-1.13c1.4,0,2.46,1.19,2.46,2.95,0,2.09-1.28,3.12-2.64,3.12a2,2,0,0,1-1.79-.91h0v3.15h-1.05Zm1.05,1.55a2.86,2.86,0,0,0,0,.43,1.64,1.64,0,0,0,1.59,1.23c1.11,0,1.76-.91,1.76-2.24,0-1.16-.61-2.16-1.73-2.16a1.68,1.68,0,0,0-1.59,1.31,1.55,1.55,0,0,0-.07.43Z"/><path d="M874.83,363.49c0,.6,0,1.12,0,1.58h-.94l-.06-.95h0a2.19,2.19,0,0,1-1.92,1.08c-.91,0-2-.5-2-2.54v-3.39H871v3.21c0,1.1.34,1.85,1.3,1.85a1.47,1.47,0,0,0,1.48-1.5v-3.56h1.06Z"/><path d="M877.85,357.6v1.67h1.52v.8h-1.52v3.13c0,.72.21,1.13.8,1.13a2.19,2.19,0,0,0,.61-.08l0,.8a2.63,2.63,0,0,1-.93.14,1.49,1.49,0,0,1-1.14-.44,2.18,2.18,0,0,1-.41-1.52v-3.16h-.9v-.8h.9v-1.4Z"/><path d="M881.07,362.36a1.85,1.85,0,0,0,2,2,3.8,3.8,0,0,0,1.61-.3l.18.76a4.67,4.67,0,0,1-1.93.36,2.7,2.7,0,0,1-2.86-2.93c0-1.75,1-3.13,2.73-3.13a2.46,2.46,0,0,1,2.39,2.74,4.88,4.88,0,0,1,0,.49Zm3.09-.76a1.49,1.49,0,0,0-1.46-1.71,1.75,1.75,0,0,0-1.62,1.71Z"/><path d="M909.61,363.8a3.68,3.68,0,0,0,1.87.53c1.07,0,1.69-.57,1.69-1.38s-.43-1.19-1.52-1.61c-1.32-.47-2.13-1.15-2.13-2.29a2.33,2.33,0,0,1,2.61-2.2,3.72,3.72,0,0,1,1.79.4l-.29.85a3.25,3.25,0,0,0-1.54-.38c-1.1,0-1.52.66-1.52,1.21,0,.75.49,1.13,1.61,1.56,1.36.53,2.06,1.19,2.06,2.37s-.92,2.33-2.83,2.33a4.13,4.13,0,0,1-2.06-.52Z"/><path d="M916.29,362.36a1.86,1.86,0,0,0,2,2,3.75,3.75,0,0,0,1.6-.3l.18.76a4.63,4.63,0,0,1-1.93.36,2.69,2.69,0,0,1-2.85-2.93c0-1.75,1-3.13,2.72-3.13a2.47,2.47,0,0,1,2.4,2.74,4.35,4.35,0,0,1,0,.49Zm3.1-.76a1.5,1.5,0,0,0-1.46-1.71,1.74,1.74,0,0,0-1.62,1.71Z"/><path d="M921.72,360.84c0-.6,0-1.1-.05-1.57h.94l.06,1h0a2.14,2.14,0,0,1,1.92-1.09c.8,0,2,.48,2,2.47v3.47H925.6v-3.35c0-.93-.34-1.71-1.34-1.71a1.5,1.5,0,0,0-1.41,1.08,1.44,1.44,0,0,0-.08.49v3.49h-1Z"/><path d="M933.39,356.55v7c0,.52,0,1.1.05,1.5h-1l0-1h0a2.14,2.14,0,0,1-2,1.14c-1.4,0-2.48-1.19-2.48-2.95,0-1.93,1.19-3.12,2.6-3.12a1.93,1.93,0,0,1,1.75.89h0v-3.47Zm-1,5.08a2.38,2.38,0,0,0-.05-.45,1.55,1.55,0,0,0-1.52-1.22c-1.1,0-1.74,1-1.74,2.24s.57,2.15,1.71,2.15a1.59,1.59,0,0,0,1.55-1.26,2.14,2.14,0,0,0,.05-.45Z"/><line class="cls-2" x1="954.84" y1="314.55" x2="828.84" y2="314.55"/><path d="M877.75,301.09a11.78,11.78,0,0,1,2-.16,3.31,3.31,0,0,1,2.34.66,2,2,0,0,1,.63,1.53,2.11,2.11,0,0,1-1.52,2.06v0a2,2,0,0,1,1.19,1.63,12.33,12.33,0,0,0,.62,2.22h-1.08a10.79,10.79,0,0,1-.54-1.93c-.24-1.12-.67-1.54-1.62-1.57h-1v3.5h-1Zm1,3.69h1.07c1.11,0,1.82-.62,1.82-1.54s-.76-1.5-1.86-1.51a4.15,4.15,0,0,0-1,.1Z"/><path d="M887.53,309.07l-.08-.73h0a2.16,2.16,0,0,1-1.77.86,1.66,1.66,0,0,1-1.78-1.67c0-1.4,1.25-2.17,3.49-2.15v-.12a1.2,1.2,0,0,0-1.32-1.35,2.93,2.93,0,0,0-1.51.43l-.24-.69a3.64,3.64,0,0,1,1.91-.52c1.77,0,2.21,1.21,2.21,2.38v2.17a8.47,8.47,0,0,0,.09,1.39Zm-.15-3c-1.15,0-2.46.18-2.46,1.3a.93.93,0,0,0,1,1,1.45,1.45,0,0,0,1.41-1,1.35,1.35,0,0,0,.06-.34Z"/><path d="M890.1,304.84c0-.6,0-1.1,0-1.57H891l.06,1h0a2.11,2.11,0,0,1,1.91-1.09c.81,0,2,.48,2,2.47v3.47h-1v-3.35c0-.93-.35-1.71-1.34-1.71a1.5,1.5,0,0,0-1.42,1.08,1.45,1.45,0,0,0-.07.49v3.49H890.1Z"/><path d="M897.81,305.93h0a7.91,7.91,0,0,1,.52-.66l1.7-2h1.27l-2.24,2.38,2.55,3.42h-1.28l-2-2.78-.54.6v2.18h-1v-8.52h1Z"/><path d="M904.6,309.07v-.65l.83-.8c2-1.9,2.89-2.9,2.9-4.08a1.39,1.39,0,0,0-1.55-1.52,2.66,2.66,0,0,0-1.65.66l-.34-.75a3.46,3.46,0,0,1,2.21-.79,2.19,2.19,0,0,1,2.38,2.27c0,1.44-1,2.6-2.68,4.18l-.62.58v0h3.5v.88Z"/><line class="cls-2" x1="891.84" y1="250.99" x2="891.84" y2="286.43"/><polygon points="891.84 293.49 887.78 283.54 891.84 285.9 895.91 283.54 891.84 293.49"/><rect class="cls-5" x="1078.34" y="206.84" width="29" height="29"/><path d="M1106.84,207.34v28h-28v-28h28m1-1h-30v30h30v-30Z"/><rect class="cls-3" x="1018.34" y="206.84" width="29" height="29"/><path d="M1046.84,207.34v28h-28v-28h28m1-1h-30v30h30v-30Z"/><path d="M1124.84,180.34v70h-124v-70h124m1-1h-126v72h126v-72Z"/><path d="M1016.4,247.6a5.2,5.2,0,0,1-2.13.38,3.77,3.77,0,0,1-4-4.09,4,4,0,0,1,4.22-4.25,4.44,4.44,0,0,1,1.92.36l-.26.86a3.66,3.66,0,0,0-1.63-.34,3,3,0,0,0-3.15,3.33,2.94,2.94,0,0,0,3.11,3.25,4.25,4.25,0,0,0,1.7-.33Z"/><path d="M1022.8,244.91a2.83,2.83,0,0,1-2.89,3.08,2.76,2.76,0,0,1-2.78-3,2.84,2.84,0,0,1,2.88-3.09A2.75,2.75,0,0,1,1022.8,244.91Zm-4.61.06c0,1.27.74,2.23,1.77,2.23s1.76-.95,1.76-2.25c0-1-.49-2.24-1.74-2.24S1018.19,243.87,1018.19,245Z"/><path d="M1024.13,243.63c0-.6,0-1.1,0-1.57h.92l0,.93h0a2,2,0,0,1,1.83-1.07,1.71,1.71,0,0,1,1.64,1.17h0a2.35,2.35,0,0,1,.65-.76,2,2,0,0,1,1.29-.41c.76,0,1.9.51,1.9,2.52v3.42h-1v-3.29c0-1.11-.41-1.78-1.26-1.78a1.36,1.36,0,0,0-1.25,1,2,2,0,0,0-.08.52v3.59h-1v-3.48c0-.92-.41-1.59-1.21-1.59a1.44,1.44,0,0,0-1.31,1.05,1.49,1.49,0,0,0-.08.52v3.5h-1Z"/><path d="M1034.14,244c0-.74,0-1.34-.05-1.89h1l0,1h0a2.3,2.3,0,0,1,2.07-1.13c1.4,0,2.46,1.19,2.46,3,0,2.09-1.28,3.12-2.64,3.12a2,2,0,0,1-1.79-.91h0v3.15h-1Zm1,1.55a2.86,2.86,0,0,0,0,.43,1.64,1.64,0,0,0,1.59,1.23c1.11,0,1.76-.91,1.76-2.24,0-1.16-.61-2.16-1.73-2.16a1.68,1.68,0,0,0-1.59,1.31,1.55,1.55,0,0,0-.07.43Z"/><path d="M1045.83,246.28c0,.6,0,1.12.05,1.58h-.94l-.06-1h0a2.19,2.19,0,0,1-1.92,1.08c-.91,0-2-.5-2-2.54v-3.39H1042v3.21c0,1.1.34,1.85,1.3,1.85a1.47,1.47,0,0,0,1.48-1.5v-3.56h1.06Z"/><path d="M1048.85,240.39v1.67h1.52v.8h-1.52V246c0,.72.21,1.13.8,1.13a2.19,2.19,0,0,0,.61-.08l0,.8a2.63,2.63,0,0,1-.93.14,1.49,1.49,0,0,1-1.14-.44,2.18,2.18,0,0,1-.41-1.52v-3.16h-.9v-.8h.9v-1.4Z"/><path d="M1052.07,245.15a1.85,1.85,0,0,0,2,2,3.8,3.8,0,0,0,1.61-.3l.18.76a4.67,4.67,0,0,1-1.93.36,2.7,2.7,0,0,1-2.86-2.93c0-1.75,1-3.13,2.73-3.13a2.46,2.46,0,0,1,2.39,2.74,4.88,4.88,0,0,1,0,.49Zm3.09-.76a1.49,1.49,0,0,0-1.46-1.71,1.75,1.75,0,0,0-1.62,1.71Z"/><path d="M1080.61,246.59a3.68,3.68,0,0,0,1.87.53c1.07,0,1.69-.57,1.69-1.38s-.43-1.19-1.52-1.61c-1.32-.47-2.13-1.15-2.13-2.29a2.33,2.33,0,0,1,2.61-2.2,3.72,3.72,0,0,1,1.79.4l-.29.85a3.25,3.25,0,0,0-1.54-.38c-1.1,0-1.52.66-1.52,1.21,0,.75.49,1.13,1.61,1.56,1.36.53,2.06,1.19,2.06,2.37s-.92,2.33-2.83,2.33a4.13,4.13,0,0,1-2.06-.52Z"/><path d="M1087.29,245.15a1.86,1.86,0,0,0,2,2,3.75,3.75,0,0,0,1.6-.3l.18.76a4.63,4.63,0,0,1-1.93.36,2.69,2.69,0,0,1-2.85-2.93c0-1.75,1-3.13,2.72-3.13a2.47,2.47,0,0,1,2.4,2.74,4.35,4.35,0,0,1,0,.49Zm3.1-.76a1.5,1.5,0,0,0-1.46-1.71,1.74,1.74,0,0,0-1.62,1.71Z"/><path d="M1092.72,243.63c0-.6,0-1.1,0-1.57h.94l.06.95h0a2.14,2.14,0,0,1,1.92-1.09c.8,0,2.05.48,2.05,2.47v3.47h-1.06v-3.35c0-.93-.34-1.71-1.34-1.71a1.5,1.5,0,0,0-1.41,1.08,1.44,1.44,0,0,0-.08.49v3.49h-1Z"/><path d="M1104.39,239.34v7c0,.52,0,1.1,0,1.5h-1l0-1h0a2.14,2.14,0,0,1-2,1.14c-1.4,0-2.48-1.19-2.48-3,0-1.93,1.19-3.12,2.6-3.12a1.93,1.93,0,0,1,1.75.89h0v-3.47Zm-1.05,5.08a2.38,2.38,0,0,0,0-.45,1.55,1.55,0,0,0-1.52-1.22c-1.1,0-1.74,1-1.74,2.24s.57,2.15,1.71,2.15a1.59,1.59,0,0,0,1.55-1.26,2.14,2.14,0,0,0,0-.45Z"/><line class="cls-2" x1="1125.84" y1="197.34" x2="999.84" y2="197.34"/><path d="M1048.75,183.88a11.78,11.78,0,0,1,2-.16,3.31,3.31,0,0,1,2.34.66,2,2,0,0,1,.63,1.53,2.11,2.11,0,0,1-1.52,2.06v0a2,2,0,0,1,1.19,1.63,12.33,12.33,0,0,0,.62,2.22h-1.08a10.79,10.79,0,0,1-.54-1.93c-.24-1.12-.67-1.54-1.62-1.57h-1v3.5h-1Zm1,3.69h1.07c1.11,0,1.82-.62,1.82-1.54s-.76-1.5-1.86-1.51a4.15,4.15,0,0,0-1,.1Z"/><path d="M1058.53,191.86l-.08-.73h0a2.16,2.16,0,0,1-1.77.86,1.66,1.66,0,0,1-1.78-1.67c0-1.4,1.25-2.17,3.49-2.15v-.12a1.2,1.2,0,0,0-1.32-1.35,2.93,2.93,0,0,0-1.51.43l-.24-.69a3.64,3.64,0,0,1,1.91-.52c1.77,0,2.21,1.21,2.21,2.38v2.17a8.47,8.47,0,0,0,.09,1.39Zm-.15-3c-1.15,0-2.46.18-2.46,1.3a.93.93,0,0,0,1,1,1.45,1.45,0,0,0,1.41-1,1.35,1.35,0,0,0,.06-.34Z"/><path d="M1061.1,187.63c0-.6,0-1.1,0-1.57h.93l.06.95h0a2.11,2.11,0,0,1,1.91-1.09c.81,0,2,.48,2,2.47v3.47h-1v-3.35c0-.93-.35-1.71-1.34-1.71a1.5,1.5,0,0,0-1.42,1.08,1.45,1.45,0,0,0-.07.49v3.49h-1.06Z"/><path d="M1068.81,188.72h0a7.91,7.91,0,0,1,.52-.66l1.7-2h1.27l-2.24,2.38,2.55,3.42h-1.28l-2-2.78-.54.6v2.18h-1v-8.52h1Z"/><path d="M1078.86,191.86v-2.12h-3.62V189l3.48-5h1.14v4.85H1081v.83h-1.09v2.12Zm0-3v-2.6c0-.41,0-.82,0-1.23h0c-.24.46-.43.8-.65,1.15l-1.9,2.66v0Z"/><rect class="cls-3" x="1078.34" y="323.51" width="29" height="29"/><path d="M1106.84,324v28h-28V324h28m1-1h-30v30h30V323Z"/><rect class="cls-1" x="1018.34" y="323.51" width="29" height="29"/><path d="M1046.84,324v28h-28V324h28m1-1h-30v30h30V323Z"/><path d="M1124.84,297v70h-124V297h124m1-1h-126v72h126V296Z"/><path d="M1016.4,364.27a5.2,5.2,0,0,1-2.13.38,3.77,3.77,0,0,1-4-4.08,4,4,0,0,1,4.22-4.25,4.29,4.29,0,0,1,1.92.36l-.26.85a3.8,3.8,0,0,0-1.63-.34,3,3,0,0,0-3.15,3.34,2.94,2.94,0,0,0,3.11,3.25,4.08,4.08,0,0,0,1.7-.34Z"/><path d="M1022.8,361.58a2.84,2.84,0,0,1-2.89,3.09,2.76,2.76,0,0,1-2.78-3,2.83,2.83,0,0,1,2.88-3.08A2.75,2.75,0,0,1,1022.8,361.58Zm-4.61.06c0,1.28.74,2.23,1.77,2.23s1.76-.94,1.76-2.25c0-1-.49-2.23-1.74-2.23S1018.19,360.54,1018.19,361.64Z"/><path d="M1024.13,360.3c0-.6,0-1.09,0-1.57h.92l0,.94h0a2,2,0,0,1,1.83-1.07,1.71,1.71,0,0,1,1.64,1.16h0a2.42,2.42,0,0,1,.65-.75,2,2,0,0,1,1.29-.41c.76,0,1.9.5,1.9,2.52v3.41h-1v-3.28c0-1.12-.41-1.79-1.26-1.79a1.36,1.36,0,0,0-1.25,1,2.11,2.11,0,0,0-.08.53v3.58h-1v-3.47c0-.93-.41-1.6-1.21-1.6a1.45,1.45,0,0,0-1.31,1.06,1.4,1.4,0,0,0-.08.51v3.5h-1Z"/><path d="M1034.14,360.62c0-.74,0-1.34-.05-1.89h1l0,1h0a2.3,2.3,0,0,1,2.07-1.13c1.4,0,2.46,1.18,2.46,2.95,0,2.09-1.28,3.12-2.64,3.12a2,2,0,0,1-1.79-.92h0v3.16h-1Zm1,1.55a2.74,2.74,0,0,0,0,.43,1.63,1.63,0,0,0,1.59,1.24c1.11,0,1.76-.91,1.76-2.24,0-1.17-.61-2.16-1.73-2.16a1.67,1.67,0,0,0-1.59,1.3,1.62,1.62,0,0,0-.07.44Z"/><path d="M1045.83,363c0,.6,0,1.13.05,1.58h-.94l-.06-.94h0a2.21,2.21,0,0,1-1.92,1.08c-.91,0-2-.51-2-2.55v-3.39H1042v3.21c0,1.11.34,1.85,1.3,1.85a1.47,1.47,0,0,0,1.48-1.5v-3.56h1.06Z"/><path d="M1048.85,357.06v1.67h1.52v.8h-1.52v3.13c0,.72.21,1.13.8,1.13a2.76,2.76,0,0,0,.61-.07l0,.79a2.63,2.63,0,0,1-.93.14,1.45,1.45,0,0,1-1.14-.44,2.15,2.15,0,0,1-.41-1.51v-3.17h-.9v-.8h.9v-1.39Z"/><path d="M1052.07,361.82a1.86,1.86,0,0,0,2,2,3.8,3.8,0,0,0,1.61-.3l.18.75a4.67,4.67,0,0,1-1.93.36,2.69,2.69,0,0,1-2.86-2.92c0-1.75,1-3.13,2.73-3.13a2.46,2.46,0,0,1,2.39,2.73,4.49,4.49,0,0,1,0,.49Zm3.09-.75a1.5,1.5,0,0,0-1.46-1.72,1.76,1.76,0,0,0-1.62,1.72Z"/><path d="M1080.61,363.26a3.68,3.68,0,0,0,1.87.53c1.07,0,1.69-.56,1.69-1.38s-.43-1.19-1.52-1.61c-1.32-.46-2.13-1.15-2.13-2.29a2.32,2.32,0,0,1,2.61-2.19,3.73,3.73,0,0,1,1.79.39l-.29.86a3.12,3.12,0,0,0-1.54-.39c-1.1,0-1.52.66-1.52,1.21,0,.76.49,1.13,1.61,1.56,1.36.53,2.06,1.19,2.06,2.38s-.92,2.32-2.83,2.32a4.14,4.14,0,0,1-2.06-.51Z"/><path d="M1087.29,361.82a1.87,1.87,0,0,0,2,2,3.75,3.75,0,0,0,1.6-.3l.18.75a4.63,4.63,0,0,1-1.93.36,2.69,2.69,0,0,1-2.85-2.92c0-1.75,1-3.13,2.72-3.13a2.46,2.46,0,0,1,2.4,2.73,4,4,0,0,1,0,.49Zm3.1-.75a1.51,1.51,0,0,0-1.46-1.72,1.75,1.75,0,0,0-1.62,1.72Z"/><path d="M1092.72,360.3c0-.6,0-1.09,0-1.57h.94l.06,1h0a2.14,2.14,0,0,1,1.92-1.09c.8,0,2.05.48,2.05,2.47v3.46h-1.06v-3.34c0-.94-.34-1.72-1.34-1.72a1.51,1.51,0,0,0-1.41,1.08,1.44,1.44,0,0,0-.08.49v3.49h-1Z"/><path d="M1104.39,356v7c0,.51,0,1.1,0,1.49h-1l0-1h0a2.16,2.16,0,0,1-2,1.14c-1.4,0-2.48-1.19-2.48-2.95,0-1.94,1.19-3.12,2.6-3.12a1.94,1.94,0,0,1,1.75.88h0V356Zm-1.05,5.07a2.2,2.2,0,0,0,0-.44,1.55,1.55,0,0,0-1.52-1.22c-1.1,0-1.74.95-1.74,2.24s.57,2.15,1.71,2.15a1.59,1.59,0,0,0,1.55-1.26,2.24,2.24,0,0,0,0-.46Z"/><line class="cls-2" x1="1125.84" y1="314.01" x2="999.84" y2="314.01"/><path d="M1048.75,300.56a10.77,10.77,0,0,1,2-.17,3.36,3.36,0,0,1,2.34.66,2,2,0,0,1,.63,1.54,2.13,2.13,0,0,1-1.52,2.06v0a2.06,2.06,0,0,1,1.19,1.64,12.4,12.4,0,0,0,.62,2.21h-1.08a10.51,10.51,0,0,1-.54-1.93c-.24-1.11-.67-1.53-1.62-1.57h-1v3.5h-1Zm1,3.68h1.07c1.11,0,1.82-.61,1.82-1.53s-.76-1.5-1.86-1.52a4.15,4.15,0,0,0-1,.1Z"/><path d="M1058.53,308.53l-.08-.73h0a2.14,2.14,0,0,1-1.77.87,1.66,1.66,0,0,1-1.78-1.67c0-1.4,1.25-2.17,3.49-2.16v-.12a1.19,1.19,0,0,0-1.32-1.34,2.93,2.93,0,0,0-1.51.43l-.24-.7a3.63,3.63,0,0,1,1.91-.51c1.77,0,2.21,1.21,2.21,2.37v2.17a8.32,8.32,0,0,0,.09,1.39Zm-.15-3c-1.15,0-2.46.18-2.46,1.31a.93.93,0,0,0,1,1,1.45,1.45,0,0,0,1.41-1,1.35,1.35,0,0,0,.06-.34Z"/><path d="M1061.1,304.3c0-.6,0-1.09,0-1.57h.93l.06,1h0a2.11,2.11,0,0,1,1.91-1.09c.81,0,2,.48,2,2.47v3.46h-1v-3.34c0-.94-.35-1.72-1.34-1.72a1.51,1.51,0,0,0-1.42,1.08,1.45,1.45,0,0,0-.07.49v3.49h-1.06Z"/><path d="M1068.81,305.39h0c.14-.2.35-.45.52-.66l1.7-2h1.27l-2.24,2.39,2.55,3.41h-1.28l-2-2.78-.54.6v2.18h-1V300h1Z"/><path d="M1075.85,307.32a3.45,3.45,0,0,0,1.73.5c1.35,0,1.77-.87,1.76-1.52,0-1.09-1-1.56-2-1.56h-.59V304h.59c.76,0,1.74-.39,1.74-1.32,0-.62-.4-1.17-1.37-1.17a2.86,2.86,0,0,0-1.56.51l-.28-.76a3.71,3.71,0,0,1,2-.6c1.54,0,2.23.91,2.23,1.86a1.94,1.94,0,0,1-1.44,1.83v0a2,2,0,0,1,1.74,2c0,1.24-1,2.34-2.84,2.34a4,4,0,0,1-2-.53Z"/><line class="cls-2" x1="1062.84" y1="296" x2="1062.84" y2="260.56"/><polygon points="1062.84 253.5 1066.91 263.45 1062.84 261.09 1058.78 263.45 1062.84 253.5"/><line class="cls-2" x1="954.24" y1="341.22" x2="989.68" y2="341.22"/><polygon points="996.75 341.22 986.79 345.28 989.16 341.22 986.79 337.15 996.75 341.22"/><line class="cls-2" x1="999.74" y1="224.22" x2="964.31" y2="224.22"/><polygon points="957.25 224.22 967.19 220.15 964.83 224.22 967.19 228.28 957.25 224.22"/><path d="M1142.09,162.3v223h-331v-223h331m1-1h-333v225h333v-225Z"/><rect class="cls-5" x="510.84" y="368.32" width="29" height="29"/><path d="M539.34,368.82v28h-28v-28h28m1-1h-30v30h30v-30Z"/><rect class="cls-3" x="450.84" y="368.32" width="29" height="29"/><path d="M479.34,368.82v28h-28v-28h28m1-1h-30v30h30v-30Z"/><path d="M557.34,341.82v70h-124v-70h124m1-1h-126v72h126v-72Z"/><path d="M448.9,409.07a5.22,5.22,0,0,1-2.14.39,3.77,3.77,0,0,1-4-4.09,4,4,0,0,1,4.22-4.25,4.4,4.4,0,0,1,1.92.36l-.25.85A3.85,3.85,0,0,0,447,402a3,3,0,0,0-3.16,3.33,2.94,2.94,0,0,0,3.11,3.25,4,4,0,0,0,1.7-.34Z"/><path d="M455.29,406.39a2.84,2.84,0,0,1-2.89,3.08,2.76,2.76,0,0,1-2.78-3,2.83,2.83,0,0,1,2.88-3.08A2.74,2.74,0,0,1,455.29,406.39Zm-4.6.05c0,1.28.73,2.24,1.76,2.24s1.77-.95,1.77-2.26c0-1-.5-2.23-1.74-2.23S450.69,405.34,450.69,406.44Z"/><path d="M456.63,405.1c0-.6,0-1.09-.05-1.57h.92l.05.94h0a2,2,0,0,1,1.82-1.07,1.74,1.74,0,0,1,1.65,1.16h0a2.42,2.42,0,0,1,.65-.75,1.93,1.93,0,0,1,1.28-.41c.77,0,1.91.5,1.91,2.52v3.42h-1v-3.29c0-1.12-.41-1.79-1.26-1.79a1.38,1.38,0,0,0-1.25,1,1.73,1.73,0,0,0-.09.53v3.59h-1v-3.48c0-.93-.4-1.6-1.21-1.6a1.45,1.45,0,0,0-1.31,1.06,1.4,1.4,0,0,0-.08.51v3.51h-1Z"/><path d="M466.64,405.43c0-.75,0-1.35-.05-1.9h1l0,1h0a2.27,2.27,0,0,1,2.06-1.13c1.4,0,2.46,1.19,2.46,3,0,2.09-1.27,3.12-2.64,3.12a2.05,2.05,0,0,1-1.79-.91h0v3.15h-1Zm1,1.54a1.88,1.88,0,0,0,.05.43,1.62,1.62,0,0,0,1.58,1.24c1.12,0,1.76-.91,1.76-2.24,0-1.17-.61-2.16-1.72-2.16a1.69,1.69,0,0,0-1.6,1.31,1.93,1.93,0,0,0-.07.43Z"/><path d="M478.32,407.75c0,.6,0,1.13.05,1.59h-.94l-.06-.95h0a2.19,2.19,0,0,1-1.92,1.08c-.91,0-2-.51-2-2.55v-3.39h1.05v3.21c0,1.11.34,1.85,1.3,1.85a1.5,1.5,0,0,0,1.49-1.5v-3.56h1.05Z"/><path d="M481.35,401.86v1.67h1.51v.8h-1.51v3.13c0,.72.2,1.13.79,1.13a2.15,2.15,0,0,0,.61-.07l.05.79a2.44,2.44,0,0,1-.94.15,1.47,1.47,0,0,1-1.14-.45,2.15,2.15,0,0,1-.4-1.51v-3.17h-.9v-.8h.9v-1.39Z"/><path d="M484.56,406.62a1.87,1.87,0,0,0,2,2,3.75,3.75,0,0,0,1.6-.3l.18.76a4.84,4.84,0,0,1-1.93.36,2.69,2.69,0,0,1-2.85-2.93c0-1.75,1-3.13,2.72-3.13a2.46,2.46,0,0,1,2.4,2.73,4,4,0,0,1,0,.49Zm3.1-.75a1.51,1.51,0,0,0-1.46-1.72,1.75,1.75,0,0,0-1.62,1.72Z"/><path d="M513.11,408.06a3.65,3.65,0,0,0,1.87.53c1.06,0,1.69-.56,1.69-1.38s-.43-1.19-1.53-1.6c-1.31-.47-2.13-1.16-2.13-2.29a2.33,2.33,0,0,1,2.61-2.2,3.6,3.6,0,0,1,1.79.4l-.29.85a3.11,3.11,0,0,0-1.53-.39c-1.11,0-1.53.66-1.53,1.21,0,.76.5,1.13,1.61,1.56,1.37.53,2.06,1.19,2.06,2.38s-.92,2.33-2.83,2.33a4.13,4.13,0,0,1-2.06-.52Z"/><path d="M519.79,406.62a1.86,1.86,0,0,0,2,2,3.8,3.8,0,0,0,1.61-.3l.18.76a4.88,4.88,0,0,1-1.93.36,2.7,2.7,0,0,1-2.86-2.93c0-1.75,1-3.13,2.72-3.13a2.46,2.46,0,0,1,2.4,2.73,4.49,4.49,0,0,1,0,.49Zm3.09-.75a1.5,1.5,0,0,0-1.46-1.72,1.75,1.75,0,0,0-1.62,1.72Z"/><path d="M525.21,405.1c0-.6,0-1.09-.05-1.57h.94l.06,1h0a2.14,2.14,0,0,1,1.92-1.09c.81,0,2,.48,2,2.47v3.47h-1V406c0-.94-.35-1.72-1.34-1.72a1.54,1.54,0,0,0-1.49,1.58v3.49h-1.06Z"/><path d="M536.89,400.82v7c0,.51,0,1.1,0,1.5H536l0-1h0a2.13,2.13,0,0,1-2,1.14c-1.41,0-2.49-1.19-2.49-3,0-1.93,1.19-3.12,2.61-3.12a2,2,0,0,1,1.75.89h0v-3.47Zm-1.06,5.07a1.65,1.65,0,0,0-.05-.44,1.54,1.54,0,0,0-1.52-1.22c-1.09,0-1.74,1-1.74,2.24s.58,2.15,1.72,2.15a1.59,1.59,0,0,0,1.54-1.26,1.71,1.71,0,0,0,.05-.46Z"/><line class="cls-2" x1="558.34" y1="358.82" x2="432.34" y2="358.82"/><path d="M481.25,345.36a10.66,10.66,0,0,1,2-.17,3.32,3.32,0,0,1,2.34.66,2,2,0,0,1,.64,1.54,2.12,2.12,0,0,1-1.53,2.06v0a2,2,0,0,1,1.19,1.64,13.92,13.92,0,0,0,.62,2.22h-1.08a10.43,10.43,0,0,1-.53-1.94c-.24-1.11-.68-1.53-1.62-1.57h-1v3.51h-1Zm1,3.68h1.07c1.12,0,1.82-.61,1.82-1.53s-.75-1.5-1.86-1.51a4.3,4.3,0,0,0-1,.09Z"/><path d="M491,353.34l-.09-.74h0a2.17,2.17,0,0,1-1.78.87,1.65,1.65,0,0,1-1.77-1.67c0-1.4,1.24-2.17,3.49-2.16v-.12a1.19,1.19,0,0,0-1.32-1.34,2.93,2.93,0,0,0-1.51.43l-.24-.7a3.6,3.6,0,0,1,1.9-.51c1.78,0,2.21,1.21,2.21,2.37v2.17a7.49,7.49,0,0,0,.1,1.4Zm-.16-3c-1.15,0-2.46.18-2.46,1.31a.94.94,0,0,0,1,1,1.45,1.45,0,0,0,1.4-1,1,1,0,0,0,.06-.34Z"/><path d="M493.6,349.1c0-.6,0-1.09-.05-1.57h.94l.05,1h0a2.14,2.14,0,0,1,1.92-1.09c.8,0,2.05.48,2.05,2.47v3.47h-1.06V350c0-.94-.34-1.72-1.34-1.72a1.51,1.51,0,0,0-1.42,1.08,1.83,1.83,0,0,0-.07.5v3.49h-1Z"/><path d="M501.3,350.19h0c.14-.2.34-.45.51-.66l1.7-2h1.28l-2.25,2.39,2.56,3.42h-1.29l-2-2.79-.54.6v2.19h-1v-8.52h1Z"/><path d="M510.38,346.52h0l-1.35.73-.21-.8,1.7-.91h.9v7.8h-1Z"/><rect class="cls-4" x="511.15" y="485.72" width="29" height="29"/><path d="M539.65,486.22v28h-28v-28h28m1-1h-30v30h30v-30Z"/><rect class="cls-5" x="451.15" y="485.72" width="29" height="29"/><path d="M479.65,486.22v28h-28v-28h28m1-1h-30v30h30v-30Z"/><path d="M557.65,459.22v70h-124v-70h124m1-1h-126v72h126v-72Z"/><path d="M449.21,526.48a5.25,5.25,0,0,1-2.14.38,3.77,3.77,0,0,1-4-4.09,4,4,0,0,1,4.22-4.24,4.26,4.26,0,0,1,1.92.36l-.25.85a3.84,3.84,0,0,0-1.63-.34,3,3,0,0,0-3.16,3.34,2.94,2.94,0,0,0,3.11,3.25,4.08,4.08,0,0,0,1.7-.34Z"/><path d="M455.6,523.79a2.84,2.84,0,0,1-2.89,3.09,2.76,2.76,0,0,1-2.78-3,2.83,2.83,0,0,1,2.88-3.08A2.74,2.74,0,0,1,455.6,523.79Zm-4.6.06c0,1.27.73,2.23,1.76,2.23s1.76-.94,1.76-2.25c0-1-.49-2.23-1.73-2.23S451,522.75,451,523.85Z"/><path d="M456.94,522.51c0-.6,0-1.09-.05-1.57h.92l.05.93h0a2,2,0,0,1,1.82-1.06,1.71,1.71,0,0,1,1.64,1.16h0a2.46,2.46,0,0,1,.65-.76,2,2,0,0,1,1.28-.4c.77,0,1.91.5,1.91,2.52v3.41h-1v-3.28c0-1.12-.4-1.79-1.25-1.79a1.36,1.36,0,0,0-1.25,1,1.68,1.68,0,0,0-.09.53v3.58h-1v-3.47c0-.93-.41-1.6-1.21-1.6a1.45,1.45,0,0,0-1.31,1.06,1.4,1.4,0,0,0-.08.51v3.5h-1Z"/><path d="M467,522.83c0-.74,0-1.34-.05-1.89h1l0,1h0a2.28,2.28,0,0,1,2.06-1.12c1.4,0,2.46,1.18,2.46,3,0,2.08-1.27,3.12-2.64,3.12A2,2,0,0,1,468,526h0v3.16h-1Zm1,1.55a1.88,1.88,0,0,0,.05.43,1.63,1.63,0,0,0,1.58,1.24c1.12,0,1.76-.91,1.76-2.24,0-1.17-.61-2.16-1.72-2.16a1.69,1.69,0,0,0-1.6,1.3,2.13,2.13,0,0,0-.07.44Z"/><path d="M478.63,525.16c0,.6,0,1.13.05,1.58h-.94l-.06-.94h0a2.21,2.21,0,0,1-1.92,1.08c-.91,0-2-.51-2-2.55v-3.39h1.05v3.21c0,1.11.34,1.85,1.3,1.85a1.52,1.52,0,0,0,1.39-1,1.57,1.57,0,0,0,.1-.54v-3.56h1.05Z"/><path d="M481.66,519.27v1.67h1.51v.8h-1.51v3.13c0,.72.2,1.13.79,1.13a2.68,2.68,0,0,0,.61-.07l.05.79a2.73,2.73,0,0,1-.94.14,1.47,1.47,0,0,1-1.14-.44,2.15,2.15,0,0,1-.4-1.51v-3.17h-.9v-.8h.9v-1.39Z"/><path d="M484.87,524a1.87,1.87,0,0,0,2,2,3.76,3.76,0,0,0,1.61-.3l.18.75a4.67,4.67,0,0,1-1.93.36,2.69,2.69,0,0,1-2.85-2.92c0-1.75,1-3.13,2.72-3.13a2.46,2.46,0,0,1,2.4,2.73,4,4,0,0,1,0,.49Zm3.1-.75a1.51,1.51,0,0,0-1.47-1.72,1.75,1.75,0,0,0-1.61,1.72Z"/><path d="M513.41,525.47a3.72,3.72,0,0,0,1.88.53c1.06,0,1.69-.56,1.69-1.38s-.43-1.19-1.53-1.61c-1.32-.46-2.13-1.15-2.13-2.29a2.32,2.32,0,0,1,2.61-2.19,3.73,3.73,0,0,1,1.79.39l-.29.85a3.24,3.24,0,0,0-1.53-.38c-1.11,0-1.53.66-1.53,1.21,0,.76.5,1.13,1.61,1.56,1.37.53,2.06,1.19,2.06,2.38s-.92,2.32-2.83,2.32a4.14,4.14,0,0,1-2.06-.51Z"/><path d="M520.1,524a1.86,1.86,0,0,0,2,2,3.83,3.83,0,0,0,1.61-.3l.18.75a4.71,4.71,0,0,1-1.93.36,2.69,2.69,0,0,1-2.86-2.92c0-1.75,1-3.13,2.72-3.13a2.45,2.45,0,0,1,2.4,2.73,4.49,4.49,0,0,1,0,.49Zm3.09-.75a1.5,1.5,0,0,0-1.46-1.72,1.75,1.75,0,0,0-1.62,1.72Z"/><path d="M525.52,522.51c0-.6,0-1.09,0-1.57h.94l.06,1h0a2.14,2.14,0,0,1,1.92-1.09c.81,0,2.05.48,2.05,2.47v3.46h-1.05V523.4c0-.94-.35-1.72-1.35-1.72a1.5,1.5,0,0,0-1.41,1.08,1.45,1.45,0,0,0-.07.49v3.49h-1.06Z"/><path d="M537.2,518.23v7c0,.52,0,1.11,0,1.5h-.94l0-1h0a2.15,2.15,0,0,1-2,1.14c-1.41,0-2.49-1.19-2.49-3,0-1.94,1.19-3.12,2.61-3.12a2,2,0,0,1,1.75.88h0v-3.46Zm-1.06,5.07a1.65,1.65,0,0,0,0-.44,1.55,1.55,0,0,0-1.52-1.23c-1.09,0-1.74,1-1.74,2.25s.58,2.14,1.72,2.14a1.58,1.58,0,0,0,1.54-1.26,1.59,1.59,0,0,0,0-.45Z"/><line class="cls-2" x1="558.65" y1="476.22" x2="432.65" y2="476.22"/><path d="M481.56,462.77a10.66,10.66,0,0,1,2-.17,3.28,3.28,0,0,1,2.34.66,2,2,0,0,1,.64,1.53,2.14,2.14,0,0,1-1.53,2.07v0a2,2,0,0,1,1.19,1.63,13.27,13.27,0,0,0,.62,2.22h-1.08a10.51,10.51,0,0,1-.54-1.93c-.24-1.11-.67-1.53-1.61-1.57h-1v3.5h-1Zm1,3.68h1.07c1.12,0,1.82-.61,1.82-1.54s-.75-1.49-1.86-1.51a4.15,4.15,0,0,0-1,.1Z"/><path d="M491.34,470.74l-.09-.73h0a2.17,2.17,0,0,1-1.78.87,1.65,1.65,0,0,1-1.77-1.67c0-1.4,1.24-2.17,3.49-2.16v-.12a1.19,1.19,0,0,0-1.32-1.34,2.81,2.81,0,0,0-1.51.43l-.24-.7a3.6,3.6,0,0,1,1.9-.51c1.78,0,2.21,1.21,2.21,2.37v2.17a7.31,7.31,0,0,0,.1,1.39Zm-.16-3c-1.15,0-2.46.18-2.46,1.31a.94.94,0,0,0,1,1,1.44,1.44,0,0,0,1.4-1,.92.92,0,0,0,.06-.33Z"/><path d="M493.91,466.51c0-.6,0-1.09-.05-1.57h.93l.06,1h0a2.14,2.14,0,0,1,1.92-1.09c.8,0,2.05.48,2.05,2.47v3.46h-1.06V467.4c0-.94-.34-1.72-1.34-1.72a1.5,1.5,0,0,0-1.42,1.08,1.75,1.75,0,0,0-.07.49v3.49h-1Z"/><path d="M501.61,467.6h0l.52-.66,1.7-2h1.27l-2.24,2.39,2.56,3.41h-1.29l-2-2.78-.54.6v2.18h-1v-8.51h1Z"/><path d="M508.4,470.74v-.64l.83-.81c2-1.89,2.89-2.9,2.9-4.08a1.39,1.39,0,0,0-1.54-1.52,2.66,2.66,0,0,0-1.66.66l-.33-.74a3.38,3.38,0,0,1,2.2-.79,2.19,2.19,0,0,1,2.39,2.26c0,1.44-1,2.61-2.69,4.19l-.62.57v0h3.5v.87Z"/><line class="cls-2" x1="495.65" y1="412.66" x2="495.65" y2="448.1"/><polygon points="495.65 455.17 491.58 445.21 495.65 447.58 499.71 445.21 495.65 455.17"/><rect class="cls-3" x="682.15" y="368.51" width="29" height="29"/><path d="M710.65,369v28h-28V369h28m1-1h-30v30h30V368Z"/><rect class="cls-1" x="622.15" y="368.51" width="29" height="29"/><path d="M650.65,369v28h-28V369h28m1-1h-30v30h30V368Z"/><path d="M728.65,342v70h-124V342h124m1-1h-126v72h126V341Z"/><path d="M620.21,409.27a5.25,5.25,0,0,1-2.14.38,3.77,3.77,0,0,1-4-4.09,4,4,0,0,1,4.22-4.24,4.26,4.26,0,0,1,1.92.36l-.25.85a3.84,3.84,0,0,0-1.63-.34,3,3,0,0,0-3.16,3.34,2.94,2.94,0,0,0,3.11,3.25,4.08,4.08,0,0,0,1.7-.34Z"/><path d="M626.6,406.58a2.84,2.84,0,0,1-2.89,3.09,2.76,2.76,0,0,1-2.78-3,2.83,2.83,0,0,1,2.88-3.08A2.74,2.74,0,0,1,626.6,406.58Zm-4.6.06c0,1.27.73,2.23,1.76,2.23s1.77-.94,1.77-2.25c0-1-.5-2.23-1.74-2.23S622,405.54,622,406.64Z"/><path d="M627.94,405.3c0-.6,0-1.09-.05-1.57h.92l.05.93h0a2,2,0,0,1,1.82-1.06,1.74,1.74,0,0,1,1.65,1.16h0A2.42,2.42,0,0,1,633,404a1.93,1.93,0,0,1,1.28-.41c.77,0,1.91.5,1.91,2.52v3.41h-1v-3.28c0-1.12-.41-1.79-1.26-1.79a1.36,1.36,0,0,0-1.25,1,1.68,1.68,0,0,0-.09.53v3.58h-1v-3.47c0-.93-.41-1.6-1.21-1.6a1.45,1.45,0,0,0-1.31,1.06,1.4,1.4,0,0,0-.08.51v3.5h-1Z"/><path d="M638,405.62c0-.74,0-1.34-.05-1.89h1l0,1h0A2.28,2.28,0,0,1,641,403.6c1.4,0,2.46,1.18,2.46,2.95,0,2.08-1.27,3.12-2.64,3.12a2,2,0,0,1-1.79-.92h0v3.16h-1Zm1,1.55a1.88,1.88,0,0,0,0,.43,1.63,1.63,0,0,0,1.58,1.24c1.12,0,1.76-.91,1.76-2.24,0-1.17-.61-2.16-1.72-2.16a1.69,1.69,0,0,0-1.6,1.3,2.13,2.13,0,0,0-.07.44Z"/><path d="M649.63,408c0,.6,0,1.13,0,1.58h-.94l-.06-.94h0a2.21,2.21,0,0,1-1.92,1.08c-.91,0-2-.51-2-2.55v-3.39h1v3.21c0,1.11.34,1.85,1.3,1.85a1.5,1.5,0,0,0,1.49-1.5v-3.56h1Z"/><path d="M652.66,402.06v1.67h1.51v.8h-1.51v3.13c0,.72.2,1.13.79,1.13a2.6,2.6,0,0,0,.61-.07l.05.79a2.69,2.69,0,0,1-.94.14,1.47,1.47,0,0,1-1.14-.44,2.15,2.15,0,0,1-.4-1.51v-3.17h-.9v-.8h.9v-1.39Z"/><path d="M655.87,406.82a1.87,1.87,0,0,0,2,2,3.75,3.75,0,0,0,1.6-.3l.18.75a4.67,4.67,0,0,1-1.93.36,2.69,2.69,0,0,1-2.85-2.92c0-1.75,1-3.13,2.72-3.13a2.46,2.46,0,0,1,2.4,2.73,4,4,0,0,1,0,.49Zm3.1-.75a1.51,1.51,0,0,0-1.47-1.72,1.75,1.75,0,0,0-1.61,1.72Z"/><path d="M684.41,408.26a3.72,3.72,0,0,0,1.88.53c1.06,0,1.69-.56,1.69-1.38s-.43-1.19-1.53-1.61c-1.32-.46-2.13-1.15-2.13-2.29a2.32,2.32,0,0,1,2.61-2.19,3.73,3.73,0,0,1,1.79.39l-.29.86a3.11,3.11,0,0,0-1.53-.39c-1.11,0-1.53.66-1.53,1.21,0,.76.5,1.13,1.61,1.56,1.37.53,2.06,1.19,2.06,2.38s-.92,2.32-2.83,2.32a4.14,4.14,0,0,1-2.06-.51Z"/><path d="M691.1,406.82a1.86,1.86,0,0,0,2,2,3.83,3.83,0,0,0,1.61-.3l.18.75a4.71,4.71,0,0,1-1.93.36,2.69,2.69,0,0,1-2.86-2.92c0-1.75,1-3.13,2.72-3.13a2.45,2.45,0,0,1,2.4,2.73,4.49,4.49,0,0,1,0,.49Zm3.09-.75a1.5,1.5,0,0,0-1.46-1.72,1.75,1.75,0,0,0-1.62,1.72Z"/><path d="M696.52,405.3c0-.6,0-1.09,0-1.57h.94l.06,1h0a2.14,2.14,0,0,1,1.92-1.09c.81,0,2.05.48,2.05,2.47v3.46h-1.05v-3.34c0-.94-.35-1.72-1.34-1.72a1.5,1.5,0,0,0-1.42,1.08,1.45,1.45,0,0,0-.07.49v3.49h-1.06Z"/><path d="M708.2,401v7c0,.52,0,1.11,0,1.5h-.94l0-1h0a2.15,2.15,0,0,1-2,1.14c-1.41,0-2.49-1.19-2.49-2.95,0-1.94,1.19-3.12,2.61-3.12a2,2,0,0,1,1.75.88h0V401Zm-1.06,5.07a1.65,1.65,0,0,0,0-.44,1.55,1.55,0,0,0-1.52-1.23c-1.09,0-1.74,1-1.74,2.25s.58,2.14,1.72,2.14a1.58,1.58,0,0,0,1.54-1.25,1.71,1.71,0,0,0,0-.46Z"/><line class="cls-2" x1="729.65" y1="359.01" x2="603.65" y2="359.01"/><path d="M652.56,345.56a10.66,10.66,0,0,1,2-.17,3.28,3.28,0,0,1,2.34.66,2,2,0,0,1,.64,1.54,2.12,2.12,0,0,1-1.53,2.06v0a2,2,0,0,1,1.19,1.64,13.36,13.36,0,0,0,.62,2.21h-1.08a10.51,10.51,0,0,1-.54-1.93c-.24-1.11-.67-1.53-1.61-1.57h-1v3.5h-1Zm1,3.68h1.07c1.12,0,1.82-.61,1.82-1.53s-.75-1.5-1.86-1.52a4.15,4.15,0,0,0-1,.1Z"/><path d="M662.34,353.53l-.09-.73h0a2.17,2.17,0,0,1-1.78.87,1.65,1.65,0,0,1-1.77-1.67c0-1.4,1.24-2.17,3.49-2.16v-.12a1.19,1.19,0,0,0-1.32-1.34,2.84,2.84,0,0,0-1.51.43l-.24-.7a3.6,3.6,0,0,1,1.9-.51c1.78,0,2.21,1.21,2.21,2.37v2.17a7.31,7.31,0,0,0,.1,1.39Zm-.16-3c-1.15,0-2.46.18-2.46,1.31a.94.94,0,0,0,1,1,1.44,1.44,0,0,0,1.4-1,.92.92,0,0,0,.06-.33Z"/><path d="M664.91,349.3c0-.6,0-1.09,0-1.57h.93l.06,1h0a2.14,2.14,0,0,1,1.92-1.09c.8,0,2.05.48,2.05,2.47v3.46h-1.06v-3.34c0-.94-.34-1.72-1.34-1.72a1.48,1.48,0,0,0-1.41,1.08,1.44,1.44,0,0,0-.08.49v3.49h-1.05Z"/><path d="M672.61,350.39h0l.52-.66,1.7-2h1.27l-2.24,2.39,2.56,3.41h-1.29l-2-2.78-.54.6v2.18h-1V345h1Z"/><path d="M682.67,353.53v-2.12H679v-.69l3.48-5h1.14v4.84h1.09v.83h-1.09v2.12Zm0-2.95V348c0-.41,0-.81,0-1.22h0c-.24.45-.44.79-.65,1.15l-1.91,2.65v0Z"/><rect class="cls-1" x="682.15" y="485.19" width="29" height="29"/><path d="M710.65,485.69v28h-28v-28h28m1-1h-30v30h30v-30Z"/><rect class="cls-4" x="622.15" y="485.19" width="29" height="29"/><path d="M650.65,485.69v28h-28v-28h28m1-1h-30v30h30v-30Z"/><path d="M728.65,458.69v70h-124v-70h124m1-1h-126v72h126v-72Z"/><path d="M620.21,525.94a5.05,5.05,0,0,1-2.14.39,3.77,3.77,0,0,1-4-4.09A4,4,0,0,1,618.3,518a4.4,4.4,0,0,1,1.92.36l-.25.85a3.85,3.85,0,0,0-1.63-.33,3,3,0,0,0-3.16,3.33,2.94,2.94,0,0,0,3.11,3.25,4.25,4.25,0,0,0,1.7-.33Z"/><path d="M626.6,523.26a2.84,2.84,0,0,1-2.89,3.08,2.76,2.76,0,0,1-2.78-3,2.83,2.83,0,0,1,2.88-3.08A2.74,2.74,0,0,1,626.6,523.26Zm-4.6.06c0,1.27.73,2.23,1.76,2.23s1.77-.95,1.77-2.26c0-1-.5-2.23-1.74-2.23S622,522.21,622,523.32Z"/><path d="M627.94,522c0-.6,0-1.09-.05-1.57h.92l.05.94h0a2,2,0,0,1,1.82-1.07,1.73,1.73,0,0,1,1.65,1.17h0a2.35,2.35,0,0,1,.65-.76,2,2,0,0,1,1.28-.41c.77,0,1.91.5,1.91,2.52v3.42h-1v-3.29c0-1.11-.41-1.78-1.26-1.78a1.37,1.37,0,0,0-1.25,1,1.73,1.73,0,0,0-.09.53v3.59h-1v-3.48c0-.92-.41-1.59-1.21-1.59a1.44,1.44,0,0,0-1.31,1.05,1.49,1.49,0,0,0-.08.52v3.5h-1Z"/><path d="M638,522.3c0-.74,0-1.34-.05-1.9h1l0,1h0a2.27,2.27,0,0,1,2.06-1.13c1.4,0,2.46,1.19,2.46,3,0,2.09-1.27,3.12-2.64,3.12a2.05,2.05,0,0,1-1.79-.91h0v3.15h-1Zm1,1.55a2,2,0,0,0,0,.43,1.63,1.63,0,0,0,1.58,1.23c1.12,0,1.76-.91,1.76-2.24,0-1.16-.61-2.16-1.72-2.16a1.7,1.7,0,0,0-1.6,1.31,2,2,0,0,0-.07.43Z"/><path d="M649.63,524.63c0,.6,0,1.12,0,1.58h-.94l-.06-1h0a2.19,2.19,0,0,1-1.92,1.08c-.91,0-2-.5-2-2.54v-3.4h1v3.22c0,1.1.34,1.84,1.3,1.84a1.52,1.52,0,0,0,1.39-1,1.57,1.57,0,0,0,.1-.54V520.4h1Z"/><path d="M652.66,518.74v1.66h1.51v.81h-1.51v3.13c0,.72.2,1.12.79,1.12a2.15,2.15,0,0,0,.61-.07l.05.79a2.44,2.44,0,0,1-.94.15,1.47,1.47,0,0,1-1.14-.45,2.13,2.13,0,0,1-.4-1.51v-3.16h-.9v-.81h.9V519Z"/><path d="M655.87,523.5a1.86,1.86,0,0,0,2,2,3.75,3.75,0,0,0,1.6-.3l.18.76a4.67,4.67,0,0,1-1.93.36,2.69,2.69,0,0,1-2.85-2.93c0-1.75,1-3.13,2.72-3.13A2.47,2.47,0,0,1,660,523a4.35,4.35,0,0,1,0,.49Zm3.1-.76A1.5,1.5,0,0,0,657.5,521a1.74,1.74,0,0,0-1.61,1.71Z"/><path d="M684.41,524.94a3.71,3.71,0,0,0,1.88.52c1.06,0,1.69-.56,1.69-1.37s-.43-1.19-1.53-1.61c-1.32-.47-2.13-1.15-2.13-2.29a2.33,2.33,0,0,1,2.61-2.2,3.72,3.72,0,0,1,1.79.4l-.29.85a3.24,3.24,0,0,0-1.53-.38c-1.11,0-1.53.66-1.53,1.21,0,.75.5,1.12,1.61,1.56,1.37.52,2.06,1.18,2.06,2.37s-.92,2.33-2.83,2.33a4.13,4.13,0,0,1-2.06-.52Z"/><path d="M691.1,523.5a1.85,1.85,0,0,0,2,2,3.83,3.83,0,0,0,1.61-.3l.18.76a4.71,4.71,0,0,1-1.93.36,2.7,2.7,0,0,1-2.86-2.93c0-1.75,1-3.13,2.72-3.13a2.46,2.46,0,0,1,2.4,2.74,4.88,4.88,0,0,1,0,.49Zm3.09-.76a1.5,1.5,0,0,0-1.46-1.71,1.74,1.74,0,0,0-1.62,1.71Z"/><path d="M696.52,522c0-.6,0-1.09,0-1.57h.94l.06,1h0a2.14,2.14,0,0,1,1.92-1.09c.81,0,2.05.48,2.05,2.47v3.47h-1.05v-3.35c0-.93-.35-1.71-1.34-1.71a1.5,1.5,0,0,0-1.42,1.08,1.45,1.45,0,0,0-.07.49v3.49h-1.06Z"/><path d="M708.2,517.69v7c0,.52,0,1.1,0,1.5h-.94l0-1h0a2.13,2.13,0,0,1-2,1.14c-1.41,0-2.49-1.19-2.49-3,0-1.93,1.19-3.12,2.61-3.12a2,2,0,0,1,1.75.89h0v-3.47Zm-1.06,5.08a1.68,1.68,0,0,0,0-.45,1.54,1.54,0,0,0-1.52-1.22c-1.09,0-1.74,1-1.74,2.24s.58,2.15,1.72,2.15a1.59,1.59,0,0,0,1.54-1.26,1.66,1.66,0,0,0,0-.46Z"/><line class="cls-2" x1="729.65" y1="475.69" x2="603.65" y2="475.69"/><path d="M652.56,462.23a10.73,10.73,0,0,1,2-.16,3.33,3.33,0,0,1,2.34.65,2,2,0,0,1,.64,1.54,2.11,2.11,0,0,1-1.53,2.06v0A2,2,0,0,1,657.2,468a13.27,13.27,0,0,0,.62,2.22h-1.08a11.07,11.07,0,0,1-.54-1.93c-.24-1.12-.67-1.54-1.61-1.57h-1v3.5h-1Zm1,3.68h1.07c1.12,0,1.82-.61,1.82-1.53s-.75-1.5-1.86-1.51a4.92,4.92,0,0,0-1,.09Z"/><path d="M662.34,470.21l-.09-.73h0a2.19,2.19,0,0,1-1.78.86,1.65,1.65,0,0,1-1.77-1.67c0-1.4,1.24-2.17,3.49-2.16v-.12a1.19,1.19,0,0,0-1.32-1.34,2.93,2.93,0,0,0-1.51.43l-.24-.69a3.6,3.6,0,0,1,1.9-.52c1.78,0,2.21,1.21,2.21,2.38v2.17a7.44,7.44,0,0,0,.1,1.39Zm-.16-3c-1.15,0-2.46.18-2.46,1.3a.94.94,0,0,0,1,1,1.45,1.45,0,0,0,1.4-1,1,1,0,0,0,.06-.34Z"/><path d="M664.91,466c0-.6,0-1.09,0-1.57h.93l.06,1h0a2.14,2.14,0,0,1,1.92-1.09c.8,0,2.05.48,2.05,2.47v3.47h-1.06v-3.35c0-.93-.34-1.71-1.34-1.71a1.48,1.48,0,0,0-1.41,1.08,1.44,1.44,0,0,0-.08.49v3.49h-1.05Z"/><path d="M672.61,467.07h0c.15-.21.35-.46.52-.66l1.7-2h1.27l-2.24,2.39,2.56,3.42h-1.29l-2-2.78-.54.6v2.18h-1v-8.52h1Z"/><path d="M679.66,469a3.49,3.49,0,0,0,1.72.49c1.36,0,1.78-.86,1.77-1.51,0-1.09-1-1.56-2-1.56h-.59v-.79h.59c.77,0,1.74-.4,1.74-1.32,0-.63-.4-1.18-1.37-1.18a2.89,2.89,0,0,0-1.56.52l-.27-.77a3.71,3.71,0,0,1,2-.6c1.53,0,2.23.91,2.23,1.86A1.93,1.93,0,0,1,682.5,466v0a2,2,0,0,1,1.74,2c0,1.25-1,2.34-2.85,2.34a4,4,0,0,1-2-.53Z"/><line class="cls-2" x1="666.65" y1="457.68" x2="666.65" y2="422.24"/><polygon points="666.65 415.18 670.71 425.13 666.65 422.76 662.58 425.13 666.65 415.18"/><line class="cls-2" x1="558.05" y1="502.89" x2="593.49" y2="502.89"/><polygon points="600.55 502.89 590.6 506.96 592.96 502.89 590.6 498.83 600.55 502.89"/><line class="cls-2" x1="603.55" y1="385.89" x2="568.11" y2="385.89"/><polygon points="561.05 385.89 571 381.83 568.64 385.89 571 389.96 561.05 385.89"/><path d="M745.89,324V547h-331V324h331m1-1h-333V548h333V323Z"/><rect class="cls-3" x="37.28" y="369.6" width="29" height="29"/><path d="M65.78,370.1v28h-28v-28h28m1-1h-30v30h30v-30Z"/><path d="M143.78,343.1v70h-124v-70h124m1-1h-126v72h126v-72Z"/><path d="M32,408.08l-.84,2.54H30.07l2.75-8.08h1.26l2.76,8.08H35.72l-.86-2.54Zm2.65-.82-.79-2.32c-.18-.53-.3-1-.42-1.48h0c-.12.48-.25,1-.41,1.47l-.79,2.33Z"/><path d="M42.86,402.11v7c0,.52,0,1.11,0,1.5H42l0-1h0a2.14,2.14,0,0,1-2,1.14c-1.4,0-2.48-1.18-2.48-2.95,0-1.93,1.19-3.11,2.6-3.11a1.94,1.94,0,0,1,1.75.88h0v-3.46Zm-1,5.07a1.65,1.65,0,0,0-.05-.44,1.56,1.56,0,0,0-1.52-1.23c-1.09,0-1.74,1-1.74,2.25s.57,2.14,1.71,2.14a1.67,1.67,0,0,0,1.6-1.71Z"/><path d="M49.63,402.11v7c0,.52,0,1.11,0,1.5h-1l0-1h0a2.14,2.14,0,0,1-2,1.14c-1.4,0-2.48-1.18-2.48-2.95,0-1.93,1.19-3.11,2.6-3.11a1.94,1.94,0,0,1,1.75.88h0v-3.46Zm-1.05,5.07a2.2,2.2,0,0,0,0-.44A1.56,1.56,0,0,0,47,405.51c-1.1,0-1.74,1-1.74,2.25s.57,2.14,1.71,2.14a1.58,1.58,0,0,0,1.55-1.26,2.06,2.06,0,0,0,0-.45Z"/><path d="M55.2,403.15v1.67h1.51v.8H55.2v3.13c0,.72.21,1.13.79,1.13a2.78,2.78,0,0,0,.62-.07l0,.79a2.63,2.63,0,0,1-.93.14,1.45,1.45,0,0,1-1.14-.44,2.15,2.15,0,0,1-.41-1.51v-3.17h-.9v-.8h.9v-1.39Z"/><path d="M63.08,407.67a2.83,2.83,0,0,1-2.89,3.08,2.76,2.76,0,0,1-2.78-3,2.83,2.83,0,0,1,2.88-3.08A2.74,2.74,0,0,1,63.08,407.67Zm-4.6.06c0,1.27.73,2.23,1.76,2.23S62,409,62,407.71c0-1-.49-2.23-1.74-2.23S58.48,406.63,58.48,407.73Z"/><path d="M72.65,410.36a5.25,5.25,0,0,1-2.14.38,3.77,3.77,0,0,1-4-4.09,4,4,0,0,1,4.22-4.24,4.26,4.26,0,0,1,1.92.36l-.25.85a3.84,3.84,0,0,0-1.63-.34,3,3,0,0,0-3.16,3.34,2.94,2.94,0,0,0,3.11,3.25,4.24,4.24,0,0,0,1.7-.34Z"/><line class="cls-2" x1="144.78" y1="360.1" x2="18.78" y2="360.1"/><path d="M67.69,346.65a10.58,10.58,0,0,1,2-.17,3.29,3.29,0,0,1,2.34.66,2,2,0,0,1,.63,1.53,2.13,2.13,0,0,1-1.52,2.07v0a2,2,0,0,1,1.19,1.63,12.33,12.33,0,0,0,.62,2.22H71.87a10.79,10.79,0,0,1-.54-1.93c-.24-1.11-.67-1.53-1.62-1.57h-1v3.5h-1Zm1,3.68H69.8c1.11,0,1.82-.61,1.82-1.54s-.75-1.5-1.86-1.51a4.15,4.15,0,0,0-1,.1Z"/><path d="M77.47,354.62l-.09-.73h0a2.16,2.16,0,0,1-1.78.86,1.64,1.64,0,0,1-1.77-1.66c0-1.41,1.24-2.17,3.49-2.16v-.12A1.2,1.2,0,0,0,76,349.47a2.87,2.87,0,0,0-1.52.43l-.24-.7a3.63,3.63,0,0,1,1.91-.51c1.78,0,2.21,1.21,2.21,2.37v2.17a8.39,8.39,0,0,0,.09,1.39Zm-.16-3c-1.15,0-2.46.18-2.46,1.31a.94.94,0,0,0,1,1,1.46,1.46,0,0,0,1.4-1,1,1,0,0,0,.06-.33Z"/><path d="M80,350.39c0-.6,0-1.09-.05-1.57h.93l.06,1h0a2.13,2.13,0,0,1,1.92-1.09c.8,0,2,.48,2,2.47v3.46H83.92v-3.34c0-.94-.35-1.72-1.34-1.72a1.5,1.5,0,0,0-1.42,1.08,1.45,1.45,0,0,0-.07.49v3.49H80Z"/><path d="M87.74,351.48h0c.15-.2.35-.46.52-.66l1.7-2h1.27L89,351.2l2.55,3.42H90.28l-2-2.78-.54.6v2.18h-1v-8.51h1Z"/><path d="M96.82,347.81h0l-1.36.73-.2-.8,1.7-.91h.9v7.79h-1Z"/><rect class="cls-5" x="37.59" y="487.01" width="29" height="29"/><path d="M66.09,487.51v28h-28v-28h28m1-1h-30v30h30v-30Z"/><path d="M144.09,460.51v70h-124v-70h124m1-1h-126v72h126v-72Z"/><line class="cls-2" x1="145.09" y1="477.51" x2="19.09" y2="477.51"/><path d="M68,464.06a10.58,10.58,0,0,1,2-.17,3.29,3.29,0,0,1,2.34.66,2,2,0,0,1,.63,1.53,2.13,2.13,0,0,1-1.52,2.07v0a2,2,0,0,1,1.19,1.63,12.33,12.33,0,0,0,.62,2.22H72.18a10.79,10.79,0,0,1-.54-1.93C71.4,469,71,468.57,70,468.53H69V472H68Zm1,3.68h1.07c1.11,0,1.82-.61,1.82-1.54s-.75-1.5-1.86-1.51a4.15,4.15,0,0,0-1,.1Z"/><path d="M77.78,472l-.09-.73h0a2.16,2.16,0,0,1-1.78.86,1.64,1.64,0,0,1-1.77-1.66c0-1.41,1.24-2.18,3.49-2.16v-.12a1.21,1.21,0,0,0-1.32-1.35,2.88,2.88,0,0,0-1.52.44l-.24-.7a3.64,3.64,0,0,1,1.91-.52c1.78,0,2.21,1.22,2.21,2.38v2.17a8.39,8.39,0,0,0,.09,1.39Zm-.16-3c-1.15,0-2.46.18-2.46,1.31a.93.93,0,0,0,1,1,1.45,1.45,0,0,0,1.4-1,1,1,0,0,0,.06-.33Z"/><path d="M80.35,467.8c0-.6,0-1.09,0-1.57h.93l.06,1h0a2.12,2.12,0,0,1,1.92-1.1c.8,0,2.05.48,2.05,2.48V472H84.23v-3.34c0-.94-.35-1.72-1.34-1.72a1.5,1.5,0,0,0-1.42,1.08,1.45,1.45,0,0,0-.07.49V472H80.35Z"/><path d="M88.05,468.89h0c.15-.2.35-.46.52-.66l1.7-2h1.27l-2.24,2.38L91.87,472H90.59l-2-2.78-.54.6V472H87v-8.51h1Z"/><path d="M94.84,472v-.65l.83-.8c2-1.89,2.89-2.9,2.9-4.08A1.39,1.39,0,0,0,97,465a2.66,2.66,0,0,0-1.65.66L95,464.9a3.41,3.41,0,0,1,2.21-.8,2.2,2.2,0,0,1,2.39,2.27c0,1.44-1,2.6-2.69,4.19l-.62.57v0h3.5V472Z"/><rect class="cls-1" x="208.59" y="369.8" width="29" height="29"/><path d="M237.09,370.3v28h-28v-28h28m1-1h-30v30h30v-30Z"/><path d="M315.09,343.3v70h-124v-70h124m1-1h-126v72h126v-72Z"/><line class="cls-2" x1="316.09" y1="360.3" x2="190.09" y2="360.3"/><path d="M239,346.85a10.58,10.58,0,0,1,2-.17,3.29,3.29,0,0,1,2.34.66,2,2,0,0,1,.63,1.53,2.13,2.13,0,0,1-1.52,2.07v0a2,2,0,0,1,1.19,1.63,12.33,12.33,0,0,0,.62,2.22h-1.08a10.79,10.79,0,0,1-.54-1.93c-.24-1.12-.67-1.53-1.62-1.57h-1v3.5h-1Zm1,3.68h1.07c1.11,0,1.82-.61,1.82-1.54s-.75-1.5-1.86-1.51a4.15,4.15,0,0,0-1,.1Z"/><path d="M248.78,354.82l-.09-.73h0a2.16,2.16,0,0,1-1.78.86,1.64,1.64,0,0,1-1.77-1.66c0-1.41,1.24-2.18,3.49-2.16V351a1.21,1.21,0,0,0-1.32-1.35,2.88,2.88,0,0,0-1.52.44l-.24-.7a3.64,3.64,0,0,1,1.91-.52c1.78,0,2.21,1.22,2.21,2.38v2.17a8.39,8.39,0,0,0,.09,1.39Zm-.16-3c-1.15,0-2.46.18-2.46,1.31a.93.93,0,0,0,1,1,1.45,1.45,0,0,0,1.4-1,1,1,0,0,0,.06-.33Z"/><path d="M251.35,350.59c0-.6,0-1.09,0-1.57h.93l.06,1h0a2.12,2.12,0,0,1,1.92-1.1c.8,0,2.05.48,2.05,2.48v3.46h-1.06v-3.34c0-.94-.35-1.72-1.34-1.72a1.5,1.5,0,0,0-1.42,1.08,1.45,1.45,0,0,0-.07.49v3.49h-1.05Z"/><path d="M259.05,351.68h0c.15-.2.35-.46.52-.66l1.7-2h1.27l-2.24,2.38,2.55,3.42h-1.28l-2-2.78-.54.6v2.18h-1v-8.51h1Z"/><path d="M269.1,354.82V352.7h-3.62V352l3.48-5h1.14v4.85h1.09v.83H270.1v2.12Zm0-2.95v-2.6c0-.41,0-.82,0-1.23h0c-.24.46-.43.8-.64,1.16l-1.91,2.65v0Z"/><rect class="cls-4" x="208.59" y="486.48" width="29" height="29"/><path d="M237.09,487v28h-28V487h28m1-1h-30v30h30V486Z"/><path d="M315.09,460v70h-124V460h124m1-1h-126v72h126V459Z"/><line class="cls-2" x1="316.09" y1="476.98" x2="190.09" y2="476.98"/><path d="M239,463.52a10.58,10.58,0,0,1,2-.17,3.34,3.34,0,0,1,2.34.66,2,2,0,0,1,.63,1.54,2.13,2.13,0,0,1-1.52,2.06v0a2,2,0,0,1,1.19,1.63,12.89,12.89,0,0,0,.62,2.22h-1.08a11.07,11.07,0,0,1-.54-1.93C242.4,468.45,242,468,241,468h-1v3.51h-1Zm1,3.68h1.07c1.11,0,1.82-.61,1.82-1.53s-.75-1.5-1.86-1.51a4.3,4.3,0,0,0-1,.09Z"/><path d="M248.78,471.5l-.09-.74h0a2.17,2.17,0,0,1-1.78.87,1.65,1.65,0,0,1-1.77-1.67c0-1.4,1.24-2.17,3.49-2.16v-.12a1.2,1.2,0,0,0-1.32-1.34,3,3,0,0,0-1.52.43l-.24-.7a3.63,3.63,0,0,1,1.91-.51c1.78,0,2.21,1.21,2.21,2.37v2.18a8.47,8.47,0,0,0,.09,1.39Zm-.16-3c-1.15,0-2.46.18-2.46,1.31a.94.94,0,0,0,1,1,1.45,1.45,0,0,0,1.4-1,1,1,0,0,0,.06-.34Z"/><path d="M251.35,467.26c0-.6,0-1.09,0-1.57h.93l.06,1h0a2.13,2.13,0,0,1,1.92-1.09c.8,0,2.05.48,2.05,2.47v3.47h-1.06v-3.35c0-.94-.35-1.71-1.34-1.71a1.5,1.5,0,0,0-1.42,1.07,1.55,1.55,0,0,0-.07.5v3.49h-1.05Z"/><path d="M259.05,468.35h0l.52-.66,1.7-2h1.27l-2.24,2.39,2.55,3.42h-1.28l-2-2.79-.54.6v2.19h-1V463h1Z"/><path d="M266.09,470.28a3.45,3.45,0,0,0,1.73.5c1.36,0,1.78-.87,1.76-1.51,0-1.1-1-1.56-2-1.56H267v-.8h.59c.77,0,1.74-.39,1.74-1.31,0-.63-.4-1.18-1.37-1.18a2.89,2.89,0,0,0-1.56.52l-.27-.77a3.65,3.65,0,0,1,2-.6c1.54,0,2.23.91,2.23,1.86a1.94,1.94,0,0,1-1.43,1.83v0a2,2,0,0,1,1.73,2c0,1.25-1,2.34-2.84,2.34a4,4,0,0,1-2-.53Z"/><path d="M332.33,325.26v223H1.33v-223h331m1-1H.33v225h333v-225Z"/><path d="M29.76,525.44,28.92,528H27.84l2.74-8.08h1.26L34.6,528H33.49l-.87-2.54Zm2.65-.82-.79-2.32c-.18-.53-.3-1-.42-1.48h0c-.12.48-.25,1-.41,1.47L30,524.62Z"/><path d="M40.63,519.47v7c0,.52,0,1.11,0,1.5h-1l0-1h0a2.17,2.17,0,0,1-2,1.13c-1.41,0-2.49-1.18-2.49-3,0-1.93,1.19-3.11,2.61-3.11a2,2,0,0,1,1.75.88h0v-3.46Zm-1.06,5.07a1.65,1.65,0,0,0,0-.44A1.55,1.55,0,0,0,38,522.87c-1.09,0-1.74,1-1.74,2.25s.58,2.14,1.72,2.14A1.58,1.58,0,0,0,39.52,526a1.59,1.59,0,0,0,0-.45Z"/><path d="M47.4,519.47v7c0,.52,0,1.11,0,1.5H46.5l0-1h0a2.14,2.14,0,0,1-2,1.13c-1.41,0-2.49-1.18-2.49-3,0-1.93,1.19-3.11,2.6-3.11a2,2,0,0,1,1.76.88h0v-3.46Zm-1.06,5.07a1.65,1.65,0,0,0-.05-.44,1.55,1.55,0,0,0-1.52-1.23c-1.09,0-1.74,1-1.74,2.25s.58,2.14,1.71,2.14a1.67,1.67,0,0,0,1.6-1.71Z"/><path d="M53,520.51v1.67h1.51v.8H53v3.13c0,.72.2,1.13.79,1.13a2.68,2.68,0,0,0,.61-.07l.05.79a2.73,2.73,0,0,1-.94.14,1.45,1.45,0,0,1-1.14-.44,2.15,2.15,0,0,1-.41-1.51V523H51v-.8h.9v-1.39Z"/><path d="M60.85,525A2.83,2.83,0,0,1,58,528.11a2.76,2.76,0,0,1-2.79-3,2.84,2.84,0,0,1,2.88-3.08A2.75,2.75,0,0,1,60.85,525Zm-4.61.06c0,1.27.73,2.23,1.76,2.23s1.77-.94,1.77-2.25c0-1-.49-2.23-1.74-2.23S56.24,524,56.24,525.09Z"/><path d="M70.41,527.72a5.2,5.2,0,0,1-2.13.38,3.78,3.78,0,0,1-4-4.09,4,4,0,0,1,4.22-4.24,4.22,4.22,0,0,1,1.92.36l-.25.85a3.8,3.8,0,0,0-1.63-.34A3,3,0,0,0,65.39,524a2.93,2.93,0,0,0,3.1,3.25,4.1,4.1,0,0,0,1.71-.34Z"/><path d="M202.76,525.44l-.84,2.54h-1.08l2.74-8.08h1.26L207.6,528h-1.11l-.87-2.54Zm2.65-.82-.79-2.32c-.18-.53-.3-1-.42-1.48h0c-.12.48-.25,1-.41,1.47l-.79,2.33Z"/><path d="M213.63,519.47v7c0,.52,0,1.11.05,1.5h-1l0-1h0a2.17,2.17,0,0,1-2,1.13c-1.41,0-2.49-1.18-2.49-3,0-1.93,1.19-3.11,2.61-3.11a2,2,0,0,1,1.75.88h0v-3.46Zm-1.06,5.07a1.65,1.65,0,0,0,0-.44,1.55,1.55,0,0,0-1.52-1.23c-1.09,0-1.74,1-1.74,2.25s.58,2.14,1.72,2.14a1.58,1.58,0,0,0,1.54-1.26,1.59,1.59,0,0,0,0-.45Z"/><path d="M220.4,519.47v7c0,.52,0,1.11,0,1.5h-.94l-.05-1h0a2.14,2.14,0,0,1-2,1.13c-1.41,0-2.49-1.18-2.49-3,0-1.93,1.19-3.11,2.6-3.11a2,2,0,0,1,1.76.88h0v-3.46Zm-1.06,5.07a1.65,1.65,0,0,0-.05-.44,1.55,1.55,0,0,0-1.52-1.23c-1.09,0-1.74,1-1.74,2.25s.58,2.14,1.71,2.14a1.67,1.67,0,0,0,1.6-1.71Z"/><path d="M226,520.51v1.67h1.51v.8H226v3.13c0,.72.2,1.13.79,1.13a2.68,2.68,0,0,0,.61-.07l0,.79a2.73,2.73,0,0,1-.94.14,1.45,1.45,0,0,1-1.14-.44,2.15,2.15,0,0,1-.41-1.51V523H224v-.8h.9v-1.39Z"/><path d="M233.85,525a2.83,2.83,0,0,1-2.89,3.08,2.76,2.76,0,0,1-2.79-3,2.84,2.84,0,0,1,2.88-3.08A2.75,2.75,0,0,1,233.85,525Zm-4.61.06c0,1.27.73,2.23,1.76,2.23s1.77-.94,1.77-2.25c0-1-.49-2.23-1.74-2.23S229.24,524,229.24,525.09Z"/><path d="M243.41,527.72a5.2,5.2,0,0,1-2.13.38,3.78,3.78,0,0,1-4-4.09,4,4,0,0,1,4.22-4.24,4.22,4.22,0,0,1,1.92.36l-.25.85a3.8,3.8,0,0,0-1.63-.34,3,3,0,0,0-3.15,3.34,2.93,2.93,0,0,0,3.1,3.25,4.1,4.1,0,0,0,1.71-.34Z"/><path d="M202.76,408.44l-.84,2.54h-1.08l2.74-8.08h1.26L207.6,411h-1.11l-.87-2.54Zm2.65-.82-.79-2.32c-.18-.53-.3-1-.42-1.48h0c-.12.48-.25,1-.41,1.47l-.79,2.33Z"/><path d="M213.63,402.47v7c0,.52,0,1.11.05,1.5h-1l0-1h0a2.17,2.17,0,0,1-2,1.13c-1.41,0-2.49-1.18-2.49-2.95,0-1.93,1.19-3.11,2.61-3.11a2,2,0,0,1,1.75.88h0v-3.46Zm-1.06,5.07a1.65,1.65,0,0,0,0-.44,1.55,1.55,0,0,0-1.52-1.23c-1.09,0-1.74,1-1.74,2.25s.58,2.14,1.72,2.14a1.58,1.58,0,0,0,1.54-1.26,1.59,1.59,0,0,0,0-.45Z"/><path d="M220.4,402.47v7c0,.52,0,1.11,0,1.5h-.94l-.05-1h0a2.14,2.14,0,0,1-2,1.13c-1.41,0-2.49-1.18-2.49-2.95,0-1.93,1.19-3.11,2.6-3.11a2,2,0,0,1,1.76.88h0v-3.46Zm-1.06,5.07a1.65,1.65,0,0,0-.05-.44,1.55,1.55,0,0,0-1.52-1.23c-1.09,0-1.74,1-1.74,2.25s.58,2.14,1.71,2.14a1.67,1.67,0,0,0,1.6-1.71Z"/><path d="M226,403.51v1.67h1.51v.8H226v3.13c0,.72.2,1.13.79,1.13a2.68,2.68,0,0,0,.61-.07l0,.79a2.73,2.73,0,0,1-.94.14,1.45,1.45,0,0,1-1.14-.44,2.15,2.15,0,0,1-.41-1.51V406H224v-.8h.9v-1.39Z"/><path d="M233.85,408a2.83,2.83,0,0,1-2.89,3.08,2.76,2.76,0,0,1-2.79-3,2.84,2.84,0,0,1,2.88-3.08A2.75,2.75,0,0,1,233.85,408Zm-4.61.06c0,1.27.73,2.23,1.76,2.23s1.77-.94,1.77-2.25c0-1-.49-2.23-1.74-2.23S229.24,407,229.24,408.09Z"/><path d="M243.41,410.72a5.2,5.2,0,0,1-2.13.38,3.78,3.78,0,0,1-4-4.09,4,4,0,0,1,4.22-4.24,4.22,4.22,0,0,1,1.92.36l-.25.85a3.8,3.8,0,0,0-1.63-.34,3,3,0,0,0-3.15,3.34,2.93,2.93,0,0,0,3.1,3.25,4.1,4.1,0,0,0,1.71-.34Z"/><line class="cls-6" x1="767.29" y1="116.66" x2="787.36" y2="136.73"/><polygon points="797.34 146.71 777.52 138.39 786.61 135.98 789.02 126.9 797.34 146.71"/><line class="cls-6" x1="797.76" y1="397.34" x2="777.69" y2="417.41"/><polygon points="767.71 427.39 776.03 407.57 778.44 416.66 787.52 419.07 767.71 427.39"/><line class="cls-6" x1="395.36" y1="444.43" x2="366.98" y2="444.43"/><polygon points="352.86 444.44 372.75 436.3 368.03 444.44 372.75 452.56 352.86 444.44"/></svg>
