<svg id="Layer_1" data-name="Layer 1" xmlns="http://www.w3.org/2000/svg" viewBox="0 0 868.18 319.8"><defs><style>.cls-1,.cls-2{fill:none;stroke:#000;stroke-miterlimit:10;}.cls-2{stroke-width:2px;}</style></defs><rect width="100%" height="100%" fill="white"/><path d="M604,85v28H576V85h28m1-1H575v30h30V84Z"/><path d="M604,115v28H576V115h28m1-1H575v30h30V114Z"/><path d="M574,115v28H546V115h28m1-1H545v30h30V114Z"/><path d="M574,85v28H546V85h28m1-1H545v30h30V84Z"/><path d="M664,85v28H636V85h28m1-1H635v30h30V84Z"/><path d="M664,115v28H636V115h28m1-1H635v30h30V114Z"/><path d="M634,115v28H606V115h28m1-1H605v30h30V114Z"/><path d="M634,85v28H606V85h28m1-1H605v30h30V84Z"/><path d="M664,145v28H636V145h28m1-1H635v30h30V144Z"/><path d="M664,175v28H636V175h28m1-1H635v30h30V174Z"/><path d="M634,175v28H606V175h28m1-1H605v30h30V174Z"/><path d="M634,145v28H606V145h28m1-1H605v30h30V144Z"/><path d="M604,145v28H576V145h28m1-1H575v30h30V144Z"/><path d="M604,175v28H576V175h28m1-1H575v30h30V174Z"/><path d="M574,175v28H546V175h28m1-1H545v30h30V174Z"/><path d="M574,145v28H546V145h28m1-1H545v30h30V144Z"/><path d="M704.1,138.27v5.64h5.43v1.44H704.1V151h-1.53v-5.69h-5.43v-1.44h5.43v-5.64Z"/><path d="M499.68,144.58a2.84,2.84,0,0,1,2.88-3,3,3,0,0,1-.05,6.05A2.83,2.83,0,0,1,499.68,144.58Z"/><path d="M811.14,318a10.38,10.38,0,0,1-4.27.77c-4.56,0-8-2.88-8-8.19,0-5.06,3.43-8.5,8.45-8.5a8.81,8.81,0,0,1,3.84.72l-.51,1.71a7.51,7.51,0,0,0-3.26-.67c-3.79,0-6.31,2.42-6.31,6.67,0,4,2.28,6.5,6.21,6.5a8.31,8.31,0,0,0,3.41-.67Z"/><path d="M600.74,220.14a20.45,20.45,0,0,1,3.82-.33A6.74,6.74,0,0,1,609,221a3.41,3.41,0,0,1,1.34,2.86,3.83,3.83,0,0,1-2.73,3.55v.05a4.18,4.18,0,0,1,3.33,4.06,4.35,4.35,0,0,1-1.37,3.24c-1.12,1-3,1.51-5.59,1.51a25.64,25.64,0,0,1-3.24-.19Zm2.09,6.63h1.89c2.21,0,3.51-1.15,3.51-2.71,0-1.9-1.44-2.64-3.55-2.64a9.26,9.26,0,0,0-1.85.14Zm0,7.75a11.34,11.34,0,0,0,1.75.1c2.16,0,4.15-.79,4.15-3.15,0-2.21-1.89-3.12-4.17-3.12h-1.73Z"/><path d="M867.18,1V287h-124V1h124m1-1h-126V288h126V0Z"/><line class="cls-1" x1="742.18" y1="72.5" x2="868.18" y2="72.5"/><line class="cls-1" x1="742.18" y1="144.5" x2="868.18" y2="144.5"/><line class="cls-1" x1="742.18" y1="216.5" x2="868.18" y2="216.5"/><path d="M388.27,314.47l-1.68,5.09h-2.16l5.5-16.18h2.52L398,319.56h-2.23L394,314.47Zm5.31-1.63L392,308.18c-.36-1.06-.6-2-.84-2.95h0c-.24,1-.51,1.94-.82,2.92l-1.58,4.69Z"/><path d="M453,2V288H329V2H453m1-1H328V289H454V1Z"/><line class="cls-1" x1="328" y1="73.52" x2="454" y2="73.52"/><line class="cls-1" x1="328" y1="145.52" x2="454" y2="145.52"/><line class="cls-1" x1="328" y1="217.52" x2="454" y2="217.52"/><line class="cls-2" x1="267" y1="145.02" x2="201.12" y2="145.02"/><polygon points="187 145.02 206.9 136.89 202.18 145.02 206.9 153.15 187 145.02"/><path d="M69,319a10.41,10.41,0,0,1-4.27.77c-4.56,0-8-2.88-8-8.19,0-5.06,3.43-8.5,8.45-8.5a8.84,8.84,0,0,1,3.84.72l-.51,1.71a7.51,7.51,0,0,0-3.26-.67c-3.79,0-6.31,2.42-6.31,6.67,0,4,2.28,6.5,6.21,6.5a8.34,8.34,0,0,0,3.41-.67Z"/><path d="M125,2V288H1V2H125m1-1H0V289H126V1Z"/><line class="cls-1" y1="73.52" x2="126" y2="73.52"/><line class="cls-1" y1="145.52" x2="126" y2="145.52"/><line class="cls-1" y1="217.52" x2="126" y2="217.52"/></svg>
