<svg id="Layer_1" data-name="Layer 1" xmlns="http://www.w3.org/2000/svg" viewBox="0 0 687.87 318.68"><defs><style>.cls-1{fill:#29abe2;}.cls-2{fill:#c1272d;}.cls-3{fill:#fcee21;}.cls-4{fill:#39b54a;}.cls-5{fill:none;stroke:#000;stroke-miterlimit:10;}</style></defs><rect width="100%" height="100%" fill="white"/><rect class="cls-1" x="598.37" y="85.5" width="29" height="29"/><path d="M626.87,86v28h-28V86h28m1-1h-30v30h30V85Z"/><rect class="cls-2" x="598.37" y="115.5" width="29" height="29"/><path d="M626.87,116v28h-28V116h28m1-1h-30v30h30V115Z"/><rect class="cls-3" x="568.37" y="115.5" width="29" height="29"/><path d="M596.87,116v28h-28V116h28m1-1h-30v30h30V115Z"/><rect class="cls-4" x="568.37" y="85.5" width="29" height="29"/><path d="M596.87,86v28h-28V86h28m1-1h-30v30h30V85Z"/><path d="M582.85,96.15h0l-2,1.11L580.47,96,583,94.66h1.35v11.82h-1.53Z"/><path d="M579.41,136.48v-1l1.24-1.22c3-2.87,4.34-4.4,4.36-6.18a2.1,2.1,0,0,0-2.32-2.31,3.93,3.93,0,0,0-2.49,1l-.5-1.13a5.1,5.1,0,0,1,3.31-1.2,3.31,3.31,0,0,1,3.58,3.44c0,2.18-1.56,3.94-4,6.35l-.94.87v0h5.26v1.32Z"/><path d="M610.79,104.65a5.26,5.26,0,0,0,2.59.74c2,0,2.66-1.31,2.65-2.29,0-1.66-1.5-2.36-3-2.36h-.88V99.53H613c1.15,0,2.61-.6,2.61-2,0-.94-.59-1.78-2.05-1.78a4.27,4.27,0,0,0-2.34.78l-.41-1.16a5.47,5.47,0,0,1,3.06-.91c2.3,0,3.34,1.38,3.34,2.82a2.92,2.92,0,0,1-2.16,2.78v0a3.07,3.07,0,0,1,2.62,3c0,1.89-1.46,3.54-4.27,3.54a5.88,5.88,0,0,1-3-.8Z"/><path d="M613.31,135.48v-3.22h-5.44v-1l5.22-7.55h1.71V131h1.64v1.25H614.8v3.22Zm0-4.47v-3.95c0-.62,0-1.24.05-1.85h-.05c-.36.69-.65,1.2-1,1.74l-2.86,4v0Z"/><path d="M686.87,86v28h-28V86h28m1-1h-30v30h30V85Z"/><path d="M686.87,116v28h-28V116h28m1-1h-30v30h30V115Z"/><path d="M656.87,116v28h-28V116h28m1-1h-30v30h30V115Z"/><path d="M656.87,86v28h-28V86h28m1-1h-30v30h30V85Z"/><path d="M642.85,96.15h0l-2,1.11L640.47,96,643,94.66h1.35v11.82h-1.53Z"/><path d="M639.41,136.48v-1l1.24-1.22c3-2.87,4.34-4.4,4.36-6.18a2.1,2.1,0,0,0-2.32-2.31,3.93,3.93,0,0,0-2.49,1l-.5-1.13a5.1,5.1,0,0,1,3.31-1.2,3.31,3.31,0,0,1,3.58,3.44c0,2.18-1.56,3.94-4,6.35l-.94.87v0h5.26v1.32Z"/><path d="M670.79,104.65a5.26,5.26,0,0,0,2.59.74c2,0,2.66-1.31,2.65-2.29,0-1.66-1.5-2.36-3-2.36h-.88V99.53H673c1.15,0,2.61-.6,2.61-2,0-.94-.59-1.78-2.05-1.78a4.27,4.27,0,0,0-2.34.78l-.41-1.16a5.47,5.47,0,0,1,3.06-.91c2.3,0,3.34,1.38,3.34,2.82a2.92,2.92,0,0,1-2.16,2.78v0a3.07,3.07,0,0,1,2.62,3c0,1.89-1.46,3.54-4.27,3.54a5.88,5.88,0,0,1-3-.8Z"/><path d="M673.31,135.48v-3.22h-5.44v-1l5.22-7.55h1.71V131h1.64v1.25H674.8v3.22Zm0-4.47v-3.95c0-.62,0-1.24.05-1.85h-.05c-.36.69-.65,1.2-1,1.74l-2.86,4v0Z"/><path d="M686.87,146v28h-28V146h28m1-1h-30v30h30V145Z"/><path d="M686.87,176v28h-28V176h28m1-1h-30v30h30V175Z"/><path d="M656.87,176v28h-28V176h28m1-1h-30v30h30V175Z"/><path d="M656.87,146v28h-28V146h28m1-1h-30v30h30V145Z"/><path d="M642.85,156.15h0l-2,1.11-.31-1.22,2.56-1.38h1.35v11.82h-1.53Z"/><path d="M639.41,196.48v-1l1.24-1.22c3-2.87,4.34-4.4,4.36-6.18a2.1,2.1,0,0,0-2.32-2.31,3.93,3.93,0,0,0-2.49,1l-.5-1.13a5.1,5.1,0,0,1,3.31-1.2,3.31,3.31,0,0,1,3.58,3.44c0,2.18-1.56,3.94-4,6.35l-.94.87v0h5.26v1.32Z"/><path d="M670.79,164.65a5.26,5.26,0,0,0,2.59.74c2,0,2.66-1.31,2.65-2.29,0-1.66-1.5-2.36-3-2.36h-.88v-1.21H673c1.15,0,2.61-.6,2.61-2,0-.94-.59-1.78-2.05-1.78a4.27,4.27,0,0,0-2.34.78l-.41-1.16a5.47,5.47,0,0,1,3.06-.91c2.3,0,3.34,1.38,3.34,2.82a2.92,2.92,0,0,1-2.16,2.78v0a3.07,3.07,0,0,1,2.62,3c0,1.89-1.46,3.54-4.27,3.54a5.88,5.88,0,0,1-3-.8Z"/><path d="M673.31,195.48v-3.22h-5.44v-1l5.22-7.55h1.71V191h1.64v1.25H674.8v3.22Zm0-4.47v-3.95c0-.62,0-1.23.05-1.85h-.05c-.36.69-.65,1.2-1,1.74l-2.86,4v0Z"/><path d="M626.87,146v28h-28V146h28m1-1h-30v30h30V145Z"/><path d="M626.87,176v28h-28V176h28m1-1h-30v30h30V175Z"/><path d="M596.87,176v28h-28V176h28m1-1h-30v30h30V175Z"/><path d="M596.87,146v28h-28V146h28m1-1h-30v30h30V145Z"/><path d="M582.85,156.15h0l-2,1.11-.31-1.22,2.56-1.38h1.35v11.82h-1.53Z"/><path d="M579.41,196.48v-1l1.24-1.22c3-2.87,4.34-4.4,4.36-6.18a2.1,2.1,0,0,0-2.32-2.31,3.93,3.93,0,0,0-2.49,1l-.5-1.13a5.1,5.1,0,0,1,3.31-1.2,3.31,3.31,0,0,1,3.58,3.44c0,2.18-1.56,3.94-4,6.35l-.94.87v0h5.26v1.32Z"/><path d="M610.79,164.65a5.26,5.26,0,0,0,2.59.74c2,0,2.66-1.31,2.65-2.29,0-1.66-1.5-2.36-3-2.36h-.88v-1.21H613c1.15,0,2.61-.6,2.61-2,0-.94-.59-1.78-2.05-1.78a4.27,4.27,0,0,0-2.34.78l-.41-1.16a5.47,5.47,0,0,1,3.06-.91c2.3,0,3.34,1.38,3.34,2.82a2.92,2.92,0,0,1-2.16,2.78v0a3.07,3.07,0,0,1,2.62,3c0,1.89-1.46,3.54-4.27,3.54a5.88,5.88,0,0,1-3-.8Z"/><path d="M613.31,195.48v-3.22h-5.44v-1l5.22-7.55h1.71V191h1.64v1.25H614.8v3.22Zm0-4.47v-3.95c0-.62,0-1.23.05-1.85h-.05c-.36.69-.65,1.2-1,1.74l-2.86,4v0Z"/><path d="M36.58,140.89h0l-2,1.11-.3-1.22,2.55-1.38h1.35v11.82H36.58Z"/><path d="M105.29,151v-1l1.24-1.22c3-2.87,4.34-4.4,4.35-6.18a2.1,2.1,0,0,0-2.32-2.31,3.93,3.93,0,0,0-2.48,1l-.51-1.13a5.13,5.13,0,0,1,3.32-1.2,3.3,3.3,0,0,1,3.58,3.44c0,2.18-1.57,3.94-4,6.34l-.94.88v0h5.26V151Z"/><path d="M177,149.6a5.32,5.32,0,0,0,2.6.75c2,0,2.66-1.31,2.64-2.3,0-1.65-1.49-2.36-3-2.36h-.88v-1.2h.88c1.15,0,2.61-.6,2.61-2,0-1-.59-1.79-2-1.79a4.2,4.2,0,0,0-2.34.79l-.42-1.17a5.55,5.55,0,0,1,3.06-.91c2.31,0,3.35,1.39,3.35,2.82a2.94,2.94,0,0,1-2.16,2.79v0a3.07,3.07,0,0,1,2.61,3c0,1.89-1.46,3.55-4.26,3.55a6,6,0,0,1-3.05-.8Z"/><path d="M253.48,151.44v-3.22h-5.43v-1.06l5.22-7.55H255V147h1.64v1.26H255v3.22Zm0-4.48v-4c0-.61,0-1.23.06-1.85h-.06c-.36.69-.64,1.2-1,1.75l-2.86,4v0Z"/><path d="M419.3,31.27h0l-2,1.11-.3-1.22,2.55-1.38h1.35V41.6H419.3Z"/><path d="M414.87,113.6v-1l1.24-1.22c3-2.88,4.34-4.4,4.36-6.19a2.1,2.1,0,0,0-2.33-2.31,4,4,0,0,0-2.48,1l-.51-1.12a5.13,5.13,0,0,1,3.32-1.2,3.3,3.3,0,0,1,3.58,3.43c0,2.19-1.57,3.95-4,6.35l-.94.87v0h5.26v1.33Z"/><path d="M416.24,183.76a5.29,5.29,0,0,0,2.6.75c2,0,2.66-1.31,2.64-2.29,0-1.66-1.49-2.37-3-2.37h-.88v-1.2h.88c1.15,0,2.61-.6,2.61-2,0-1-.6-1.78-2.05-1.78a4.27,4.27,0,0,0-2.34.78l-.42-1.16a5.47,5.47,0,0,1,3.06-.91c2.31,0,3.35,1.38,3.35,2.82a2.94,2.94,0,0,1-2.16,2.78v0a3.08,3.08,0,0,1,2.61,3c0,1.89-1.46,3.55-4.26,3.55a6,6,0,0,1-3.05-.8Z"/><path d="M420.76,257.6v-3.22h-5.43v-1l5.22-7.55h1.71v7.34h1.64v1.26h-1.64v3.22Zm0-4.48v-3.94q0-.93.06-1.86h-.06c-.36.69-.64,1.2-1,1.75l-2.86,4v0Z"/><path d="M519,143v-1.44h12.39V143Zm0,4.71v-1.44h12.39v1.44Z"/><path d="M321.5,144.58a2.84,2.84,0,0,1,2.88-3,3,3,0,0,1-.05,6.05A2.83,2.83,0,0,1,321.5,144.58Z"/><path d="M141.63,236.54,140,241.63h-2.16l5.5-16.18h2.52l5.52,16.18H149.1l-1.73-5.09Zm5.31-1.63-1.59-4.66c-.36-1.05-.6-2-.84-2.95h0c-.24,1-.51,1.94-.82,2.93l-1.58,4.68Z"/><path d="M413.66,302.58a19.49,19.49,0,0,1,3.81-.34,6.7,6.7,0,0,1,4.44,1.17,3.41,3.41,0,0,1,1.35,2.86,3.83,3.83,0,0,1-2.74,3.55v.05a4.18,4.18,0,0,1,3.34,4.06,4.35,4.35,0,0,1-1.37,3.24c-1.13,1-2.95,1.51-5.59,1.51a25.5,25.5,0,0,1-3.24-.19Zm2.09,6.62h1.89c2.21,0,3.51-1.15,3.51-2.71,0-1.9-1.44-2.64-3.56-2.64a9.06,9.06,0,0,0-1.84.14Zm0,7.75a11.17,11.17,0,0,0,1.75.1c2.16,0,4.15-.79,4.15-3.15,0-2.2-1.9-3.12-4.18-3.12h-1.72Z"/><path d="M634.91,236.56a10.38,10.38,0,0,1-4.27.77c-4.56,0-8-2.88-8-8.19,0-5.06,3.43-8.5,8.45-8.5a8.77,8.77,0,0,1,3.84.72l-.51,1.71a7.51,7.51,0,0,0-3.26-.67c-3.79,0-6.31,2.42-6.31,6.67,0,4,2.28,6.5,6.21,6.5a8.31,8.31,0,0,0,3.41-.67Z"/><path d="M153.78,221.47h-2.46v-.89h6v.89h-2.47v7.2h-1.06Z"/><path d="M481,1V287H357V1H481m1-1H356V288H482V0Z"/><line class="cls-5" x1="356" y1="72.5" x2="482" y2="72.5"/><line class="cls-5" x1="356" y1="144.5" x2="482" y2="144.5"/><line class="cls-5" x1="356" y1="216.5" x2="482" y2="216.5"/><path d="M287,83V207H1V83H287m1-1H0V208H288V82Z"/><line class="cls-5" x1="72.5" y1="208" x2="72.5" y2="82"/><line class="cls-5" x1="144.5" y1="208" x2="144.5" y2="82"/><line class="cls-5" x1="216.5" y1="208" x2="216.5" y2="82"/></svg>
