<svg id="Layer_1" data-name="Layer 1" xmlns="http://www.w3.org/2000/svg" viewBox="0 0 1005.46 318.68"><defs><style>.cls-1,.cls-2{fill:none;stroke:#000;stroke-miterlimit:10;}.cls-2{stroke-width:2px;}</style></defs><rect width="100%" height="100%" fill="white"/><path d="M944.46,85v28h-28V85h28m1-1h-30v30h30V84Z"/><path d="M944.46,115v28h-28V115h28m1-1h-30v30h30V114Z"/><path d="M914.46,115v28h-28V115h28m1-1h-30v30h30V114Z"/><path d="M914.46,85v28h-28V85h28m1-1h-30v30h30V84Z"/><path d="M1004.46,85v28h-28V85h28m1-1h-30v30h30V84Z"/><path d="M1004.46,115v28h-28V115h28m1-1h-30v30h30V114Z"/><path d="M974.46,115v28h-28V115h28m1-1h-30v30h30V114Z"/><path d="M974.46,85v28h-28V85h28m1-1h-30v30h30V84Z"/><path d="M1004.46,145v28h-28V145h28m1-1h-30v30h30V144Z"/><path d="M1004.46,175v28h-28V175h28m1-1h-30v30h30V174Z"/><path d="M974.46,175v28h-28V175h28m1-1h-30v30h30V174Z"/><path d="M974.46,145v28h-28V145h28m1-1h-30v30h30V144Z"/><path d="M944.46,145v28h-28V145h28m1-1h-30v30h30V144Z"/><path d="M944.46,175v28h-28V175h28m1-1h-30v30h30V174Z"/><path d="M914.46,175v28h-28V175h28m1-1h-30v30h30V174Z"/><path d="M914.46,145v28h-28V145h28m1-1h-30v30h30V144Z"/><path d="M843.51,138.27v5.64h5.43v1.44h-5.43V151H842v-5.69h-5.43v-1.44H842v-5.64Z"/><path d="M639.09,144.58a2.84,2.84,0,0,1,2.88-3,3,3,0,0,1-.05,6.05A2.83,2.83,0,0,1,639.09,144.58Z"/><path d="M459.23,236.54l-1.69,5.09h-2.16l5.5-16.18h2.52l5.52,16.18h-2.23L465,236.54Zm5.3-1.63L463,230.25c-.36-1.05-.6-2-.84-2.95h-.05c-.24,1-.51,1.94-.82,2.93l-1.58,4.68Z"/><path d="M731.25,302.58a19.49,19.49,0,0,1,3.81-.34,6.7,6.7,0,0,1,4.44,1.17,3.41,3.41,0,0,1,1.35,2.86,3.83,3.83,0,0,1-2.74,3.55v.05a4.18,4.18,0,0,1,3.34,4.06,4.35,4.35,0,0,1-1.37,3.24c-1.13,1-3,1.51-5.59,1.51a25.5,25.5,0,0,1-3.24-.19Zm2.09,6.62h1.89c2.21,0,3.51-1.15,3.51-2.71,0-1.9-1.44-2.64-3.56-2.64a9.06,9.06,0,0,0-1.84.14Zm0,7.75a11.17,11.17,0,0,0,1.75.1c2.16,0,4.15-.79,4.15-3.15,0-2.2-1.9-3.12-4.18-3.12h-1.72Z"/><path d="M952.51,235.56a10.47,10.47,0,0,1-4.28.77c-4.56,0-8-2.88-8-8.19,0-5.06,3.43-8.5,8.45-8.5a8.77,8.77,0,0,1,3.84.72l-.51,1.71a7.51,7.51,0,0,0-3.26-.67c-3.79,0-6.31,2.42-6.31,6.67,0,4,2.28,6.5,6.21,6.5a8.31,8.31,0,0,0,3.41-.67Z"/><path d="M471.37,221.47h-2.46v-.89h6v.89h-2.47v7.2h-1.06Z"/><path d="M798.59,1V287h-124V1h124m1-1h-126V288h126V0Z"/><line class="cls-1" x1="673.59" y1="72.5" x2="799.59" y2="72.5"/><line class="cls-1" x1="673.59" y1="144.5" x2="799.59" y2="144.5"/><line class="cls-1" x1="673.59" y1="216.5" x2="799.59" y2="216.5"/><path d="M604.59,83V207h-286V83h286m1-1h-288V208h288V82Z"/><line class="cls-1" x1="390.09" y1="208" x2="390.09" y2="82"/><line class="cls-1" x1="462.09" y1="208" x2="462.09" y2="82"/><line class="cls-1" x1="534.09" y1="208" x2="534.09" y2="82"/><line class="cls-2" x1="259.28" y1="143.79" x2="193.41" y2="143.79"/><polygon points="179.28 143.79 199.18 135.66 194.46 143.79 199.18 151.92 179.28 143.79"/><path d="M59,84.76v28H31v-28H59m1-1H30v30H60v-30Z"/><path d="M59,114.76v28H31v-28H59m1-1H30v30H60v-30Z"/><path d="M29,114.76v28H1v-28H29m1-1H0v30H30v-30Z"/><path d="M29,84.76v28H1v-28H29m1-1H0v30H30v-30Z"/><path d="M119,84.76v28H91v-28h28m1-1H90v30h30v-30Z"/><path d="M119,114.76v28H91v-28h28m1-1H90v30h30v-30Z"/><path d="M89,114.76v28H61v-28H89m1-1H60v30H90v-30Z"/><path d="M89,84.76v28H61v-28H89m1-1H60v30H90v-30Z"/><path d="M119,144.76v28H91v-28h28m1-1H90v30h30v-30Z"/><path d="M119,174.76v28H91v-28h28m1-1H90v30h30v-30Z"/><path d="M89,174.76v28H61v-28H89m1-1H60v30H90v-30Z"/><path d="M89,144.76v28H61v-28H89m1-1H60v30H90v-30Z"/><path d="M59,144.76v28H31v-28H59m1-1H30v30H60v-30Z"/><path d="M59,174.76v28H31v-28H59m1-1H30v30H60v-30Z"/><path d="M29,174.76v28H1v-28H29m1-1H0v30H30v-30Z"/><path d="M29,144.76v28H1v-28H29m1-1H0v30H30v-30Z"/><path d="M67.05,235.32a10.3,10.3,0,0,1-4.28.77c-4.56,0-8-2.88-8-8.19a8,8,0,0,1,8.45-8.49,8.62,8.62,0,0,1,3.84.72l-.5,1.7a7.7,7.7,0,0,0-3.27-.67c-3.79,0-6.31,2.42-6.31,6.67,0,4,2.28,6.51,6.22,6.51a8.29,8.29,0,0,0,3.4-.68Z"/></svg>
